<svg xmlns="http://www.w3.org/2000/svg" width="564" height="816" class="svgbob">
  <style>.svgbob line, .svgbob path, .svgbob circle, .svgbob rect, .svgbob polygon {
  stroke: black;
  stroke-width: 2;
  stroke-opacity: 1;
  fill-opacity: 1;
  stroke-linecap: round;
  stroke-linejoin: miter;
}

.svgbob text {
  white-space: pre;
  fill: black;
  font-family: courier new;
  font-size: 21px;
}

.svgbob rect.backdrop {
  stroke: none;
  fill: transparent;
}

.svgbob .broken {
  stroke-dasharray: 8;
}

.svgbob .filled {
  fill: black;
}

.svgbob .bg_filled {
  fill: transparent;
  stroke-width: 1;
}

.svgbob .nofill {
  fill: transparent;
}

.svgbob .end_marked_arrow {
  marker-end: url(#arrow);
}

.svgbob .start_marked_arrow {
  marker-start: url(#arrow);
}

.svgbob .end_marked_diamond {
  marker-end: url(#diamond);
}

.svgbob .start_marked_diamond {
  marker-start: url(#diamond);
}

.svgbob .end_marked_circle {
  marker-end: url(#circle);
}

.svgbob .start_marked_circle {
  marker-start: url(#circle);
}

.svgbob .end_marked_open_circle {
  marker-end: url(#open_circle);
}

.svgbob .start_marked_open_circle {
  marker-start: url(#open_circle);
}

.svgbob .end_marked_big_open_circle {
  marker-end: url(#big_open_circle);
}

.svgbob .start_marked_big_open_circle {
  marker-start: url(#big_open_circle);
}

</style>
  <defs>
    <marker id="arrow" viewBox="-2 -2 8 8" refX="4" refY="2" markerWidth="7" markerHeight="7" orient="auto-start-reverse">
      <polygon points="0,0 0,4 4,2 0,0"></polygon>
    </marker>
    <marker id="diamond" viewBox="-2 -2 8 8" refX="4" refY="2" markerWidth="7" markerHeight="7" orient="auto-start-reverse">
      <polygon points="0,2 2,0 4,2 2,4 0,2"></polygon>
    </marker>
    <marker id="circle" viewBox="0 0 8 8" refX="4" refY="4" markerWidth="7" markerHeight="7" orient="auto-start-reverse">
      <circle cx="4" cy="4" r="2" class="filled"></circle>
    </marker>
    <marker id="open_circle" viewBox="0 0 8 8" refX="4" refY="4" markerWidth="7" markerHeight="7" orient="auto-start-reverse">
      <circle cx="4" cy="4" r="2" class="bg_filled"></circle>
    </marker>
    <marker id="big_open_circle" viewBox="0 0 8 8" refX="4" refY="4" markerWidth="7" markerHeight="7" orient="auto-start-reverse">
      <circle cx="4" cy="4" r="3" class="bg_filled"></circle>
    </marker>
  </defs>
  <rect class="backdrop" x="0" y="0" width="564" height="816"></rect>
  <text x="3" y="18" >drwxrwxr</text>
  <line x1="96" y1="12" x2="108" y2="12" class="solid"></line>
  <text x="111" y="18" >x</text>
  <text x="3" y="42" >drwxrwxr</text>
  <line x1="96" y1="36" x2="108" y2="36" class="solid"></line>
  <text x="111" y="42" >x</text>
  <text x="3" y="66" >.rw</text>
  <line x1="36" y1="60" x2="48" y2="60" class="solid"></line>
  <text x="51" y="66" >rw</text>
  <line x1="72" y1="60" x2="84" y2="60" class="solid"></line>
  <text x="87" y="66" >r</text>
  <line x1="96" y1="60" x2="120" y2="60" class="solid"></line>
  <text x="3" y="90" >drwxrwxr</text>
  <line x1="96" y1="84" x2="108" y2="84" class="solid"></line>
  <text x="111" y="90" >x</text>
  <text x="3" y="114" >drwxrwxr</text>
  <line x1="96" y1="108" x2="108" y2="108" class="solid"></line>
  <text x="111" y="114" >x</text>
  <text x="3" y="138" >.rw</text>
  <line x1="36" y1="132" x2="48" y2="132" class="solid"></line>
  <text x="51" y="138" >rw</text>
  <line x1="72" y1="132" x2="84" y2="132" class="solid"></line>
  <text x="87" y="138" >r</text>
  <line x1="96" y1="132" x2="120" y2="132" class="solid"></line>
  <text x="3" y="162" >drwxrwxr</text>
  <line x1="96" y1="156" x2="108" y2="156" class="solid"></line>
  <text x="111" y="162" >x</text>
  <text x="3" y="186" >.rw</text>
  <line x1="36" y1="180" x2="48" y2="180" class="solid"></line>
  <text x="51" y="186" >rw</text>
  <line x1="72" y1="180" x2="84" y2="180" class="solid"></line>
  <text x="87" y="186" >r</text>
  <line x1="96" y1="180" x2="120" y2="180" class="solid"></line>
  <text x="3" y="210" >.rw</text>
  <line x1="36" y1="204" x2="48" y2="204" class="solid"></line>
  <text x="51" y="210" >rw</text>
  <line x1="72" y1="204" x2="84" y2="204" class="solid"></line>
  <text x="87" y="210" >r</text>
  <line x1="96" y1="204" x2="120" y2="204" class="solid"></line>
  <text x="3" y="234" >.rw</text>
  <line x1="36" y1="228" x2="48" y2="228" class="solid"></line>
  <text x="51" y="234" >rw</text>
  <line x1="72" y1="228" x2="84" y2="228" class="solid"></line>
  <text x="87" y="234" >r</text>
  <line x1="96" y1="228" x2="120" y2="228" class="solid"></line>
  <text x="3" y="258" >drwxrwxr</text>
  <line x1="96" y1="252" x2="108" y2="252" class="solid"></line>
  <text x="111" y="258" >x</text>
  <text x="3" y="282" >.rw</text>
  <line x1="36" y1="276" x2="48" y2="276" class="solid"></line>
  <text x="51" y="282" >rw</text>
  <line x1="72" y1="276" x2="84" y2="276" class="solid"></line>
  <text x="87" y="282" >r</text>
  <line x1="96" y1="276" x2="120" y2="276" class="solid"></line>
  <text x="3" y="306" >drwxrwxr</text>
  <line x1="96" y1="300" x2="108" y2="300" class="solid"></line>
  <text x="111" y="306" >x</text>
  <text x="3" y="330" >.rw</text>
  <line x1="36" y1="324" x2="48" y2="324" class="solid"></line>
  <text x="51" y="330" >rw</text>
  <line x1="72" y1="324" x2="84" y2="324" class="solid"></line>
  <text x="87" y="330" >r</text>
  <line x1="96" y1="324" x2="120" y2="324" class="solid"></line>
  <text x="3" y="354" >.rw</text>
  <line x1="36" y1="348" x2="48" y2="348" class="solid"></line>
  <text x="51" y="354" >rw</text>
  <line x1="72" y1="348" x2="84" y2="348" class="solid"></line>
  <text x="87" y="354" >r</text>
  <line x1="96" y1="348" x2="120" y2="348" class="solid"></line>
  <text x="3" y="378" >.rw</text>
  <line x1="36" y1="372" x2="48" y2="372" class="solid"></line>
  <text x="51" y="378" >rw</text>
  <line x1="72" y1="372" x2="84" y2="372" class="solid"></line>
  <text x="87" y="378" >r</text>
  <line x1="96" y1="372" x2="120" y2="372" class="solid"></line>
  <text x="3" y="402" >drwxrwxr</text>
  <line x1="96" y1="396" x2="108" y2="396" class="solid"></line>
  <text x="111" y="402" >x</text>
  <text x="3" y="426" >.rw</text>
  <line x1="36" y1="420" x2="48" y2="420" class="solid"></line>
  <text x="51" y="426" >rw</text>
  <line x1="72" y1="420" x2="84" y2="420" class="solid"></line>
  <text x="87" y="426" >r</text>
  <line x1="96" y1="420" x2="120" y2="420" class="solid"></line>
  <text x="3" y="450" >.rw</text>
  <line x1="36" y1="444" x2="48" y2="444" class="solid"></line>
  <text x="51" y="450" >rw</text>
  <line x1="72" y1="444" x2="84" y2="444" class="solid"></line>
  <text x="87" y="450" >r</text>
  <line x1="96" y1="444" x2="120" y2="444" class="solid"></line>
  <text x="3" y="474" >.rw</text>
  <line x1="36" y1="468" x2="48" y2="468" class="solid"></line>
  <text x="51" y="474" >rw</text>
  <line x1="72" y1="468" x2="84" y2="468" class="solid"></line>
  <text x="87" y="474" >r</text>
  <line x1="96" y1="468" x2="120" y2="468" class="solid"></line>
  <text x="3" y="498" >drwxrwxr</text>
  <line x1="96" y1="492" x2="108" y2="492" class="solid"></line>
  <text x="111" y="498" >x</text>
  <text x="3" y="522" >.rw</text>
  <line x1="36" y1="516" x2="48" y2="516" class="solid"></line>
  <text x="51" y="522" >rw</text>
  <line x1="72" y1="516" x2="84" y2="516" class="solid"></line>
  <text x="87" y="522" >r</text>
  <line x1="96" y1="516" x2="120" y2="516" class="solid"></line>
  <text x="3" y="546" >.rwxrwxr</text>
  <line x1="96" y1="540" x2="108" y2="540" class="solid"></line>
  <text x="111" y="546" >x</text>
  <text x="3" y="570" >drwxrwxr</text>
  <line x1="96" y1="564" x2="108" y2="564" class="solid"></line>
  <text x="111" y="570" >x</text>
  <text x="3" y="594" >.rw</text>
  <line x1="36" y1="588" x2="48" y2="588" class="solid"></line>
  <text x="51" y="594" >rw</text>
  <line x1="72" y1="588" x2="84" y2="588" class="solid"></line>
  <text x="87" y="594" >r</text>
  <line x1="96" y1="588" x2="120" y2="588" class="solid"></line>
  <text x="3" y="618" >drwxrwxr</text>
  <line x1="96" y1="612" x2="108" y2="612" class="solid"></line>
  <text x="111" y="618" >x</text>
  <text x="3" y="642" >.rwxrwxr</text>
  <line x1="96" y1="636" x2="108" y2="636" class="solid"></line>
  <text x="111" y="642" >x</text>
  <text x="3" y="666" >.rw</text>
  <line x1="36" y1="660" x2="48" y2="660" class="solid"></line>
  <text x="51" y="666" >rw</text>
  <line x1="72" y1="660" x2="84" y2="660" class="solid"></line>
  <text x="87" y="666" >r</text>
  <line x1="96" y1="660" x2="120" y2="660" class="solid"></line>
  <text x="3" y="690" >.rw</text>
  <line x1="36" y1="684" x2="48" y2="684" class="solid"></line>
  <text x="51" y="690" >rw</text>
  <line x1="72" y1="684" x2="84" y2="684" class="solid"></line>
  <text x="87" y="690" >r</text>
  <line x1="96" y1="684" x2="120" y2="684" class="solid"></line>
  <text x="3" y="714" >.rw</text>
  <line x1="36" y1="708" x2="48" y2="708" class="solid"></line>
  <text x="51" y="714" >rw</text>
  <line x1="72" y1="708" x2="84" y2="708" class="solid"></line>
  <text x="87" y="714" >r</text>
  <line x1="96" y1="708" x2="120" y2="708" class="solid"></line>
  <text x="3" y="738" >.rw</text>
  <line x1="36" y1="732" x2="48" y2="732" class="solid"></line>
  <text x="51" y="738" >rw</text>
  <line x1="72" y1="732" x2="84" y2="732" class="solid"></line>
  <text x="87" y="738" >r</text>
  <line x1="96" y1="732" x2="120" y2="732" class="solid"></line>
  <text x="3" y="762" >drwxrwxr</text>
  <line x1="96" y1="756" x2="108" y2="756" class="solid"></line>
  <text x="111" y="762" >x</text>
  <text x="3" y="786" >.rwxrwxr</text>
  <line x1="96" y1="780" x2="108" y2="780" class="solid"></line>
  <text x="111" y="786" >x</text>
  <line x1="168" y1="12" x2="180" y2="12" class="solid"></line>
  <line x1="168" y1="36" x2="180" y2="36" class="solid"></line>
  <text x="171" y="66" >0</text>
  <line x1="168" y1="84" x2="180" y2="84" class="solid"></line>
  <line x1="168" y1="108" x2="180" y2="108" class="solid"></line>
  <text x="171" y="138" >0</text>
  <line x1="168" y1="156" x2="180" y2="156" class="solid"></line>
  <text x="147" y="186" >167</text>
  <text x="171" y="210" >0</text>
  <text x="171" y="234" >0</text>
  <line x1="168" y1="252" x2="180" y2="252" class="solid"></line>
  <text x="135" y="282" >1.7k</text>
  <line x1="168" y1="300" x2="180" y2="300" class="solid"></line>
  <text x="159" y="330" >17</text>
  <text x="135" y="354" >4.6k</text>
  <text x="135" y="378" >3.8k</text>
  <line x1="168" y1="396" x2="180" y2="396" class="solid"></line>
  <text x="147" y="426" >248</text>
  <text x="135" y="450" >2.0k</text>
  <text x="171" y="474" >0</text>
  <line x1="168" y1="492" x2="180" y2="492" class="solid"></line>
  <text x="159" y="522" >15</text>
  <text x="147" y="546" >641</text>
  <line x1="168" y1="564" x2="180" y2="564" class="solid"></line>
  <text x="171" y="594" >0</text>
  <line x1="168" y1="612" x2="180" y2="612" class="solid"></line>
  <text x="147" y="642" >408</text>
  <text x="147" y="666" >550</text>
  <text x="135" y="690" >2.6k</text>
  <text x="147" y="714" >297</text>
  <text x="147" y="738" >509</text>
  <line x1="168" y1="756" x2="180" y2="756" class="solid"></line>
  <text x="147" y="786" >513</text>
  <text x="243" y="42" >assets</text>
  <text x="279" y="66" >dir.svg</text>
  <text x="243" y="90" >cmd</text>
  <text x="279" y="114" >analysis</text>
  <text x="315" y="138" >app.go</text>
  <text x="315" y="162" >internal</text>
  <text x="351" y="186" >analysis.go</text>
  <text x="351" y="210" >types.go</text>
  <text x="315" y="234" >test.go</text>
  <text x="279" y="258" >postgres</text>
  <text x="315" y="282" >app.go</text>
  <text x="315" y="306" >internal</text>
  <text x="351" y="330" >read.go</text>
  <text x="351" y="354" >types.go</text>
  <text x="351" y="378" >write.go</text>
  <text x="315" y="402" >migrate</text>
  <text x="351" y="426" >001</text>
  <line x1="384" y1="432" x2="396" y2="432" class="solid"></line>
  <text x="399" y="426" >init.down.sql</text>
  <text x="351" y="450" >001</text>
  <line x1="384" y1="456" x2="396" y2="456" class="solid"></line>
  <text x="399" y="450" >init.up.sql</text>
  <text x="315" y="474" >test.go</text>
  <text x="279" y="498" >scrape</text>
  <text x="315" y="522" >app.go</text>
  <text x="315" y="546" >scrape.sh</text>
  <text x="243" y="570" >config</text>
  <text x="279" y="594" >postgres.yaml</text>
  <text x="243" y="618" >githooks</text>
  <text x="279" y="642" >pre</text>
  <line x1="312" y1="636" x2="324" y2="636" class="solid"></line>
  <text x="327" y="642" >commit</text>
  <text x="243" y="666" >go.mod</text>
  <text x="243" y="690" >go.sum</text>
  <text x="243" y="714" >Makefile</text>
  <text x="243" y="738" >README.md</text>
  <text x="243" y="762" >scripts</text>
  <text x="279" y="786" >scrape.sh</text>
  <g>
    <line x1="198" y1="18" x2="198" y2="756" class="solid"></line>
    <line x1="198" y1="36" x2="228" y2="36" class="solid"></line>
    <line x1="198" y1="84" x2="228" y2="84" class="solid"></line>
    <line x1="198" y1="564" x2="228" y2="564" class="solid"></line>
    <line x1="198" y1="612" x2="228" y2="612" class="solid"></line>
    <line x1="198" y1="660" x2="228" y2="660" class="solid"></line>
    <line x1="198" y1="684" x2="228" y2="684" class="solid"></line>
    <line x1="198" y1="708" x2="228" y2="708" class="solid"></line>
    <line x1="198" y1="732" x2="228" y2="732" class="solid"></line>
    <line x1="198" y1="756" x2="228" y2="756" class="solid"></line>
  </g>
  <g>
    <line x1="234" y1="48" x2="234" y2="60" class="solid"></line>
    <line x1="234" y1="60" x2="264" y2="60" class="solid"></line>
  </g>
  <g>
    <line x1="234" y1="96" x2="234" y2="492" class="solid"></line>
    <line x1="234" y1="108" x2="264" y2="108" class="solid"></line>
    <line x1="234" y1="252" x2="264" y2="252" class="solid"></line>
    <line x1="234" y1="492" x2="264" y2="492" class="solid"></line>
  </g>
  <g>
    <line x1="270" y1="120" x2="270" y2="228" class="solid"></line>
    <line x1="270" y1="132" x2="300" y2="132" class="solid"></line>
    <line x1="270" y1="156" x2="300" y2="156" class="solid"></line>
    <line x1="270" y1="228" x2="300" y2="228" class="solid"></line>
  </g>
  <g>
    <line x1="306" y1="168" x2="306" y2="204" class="solid"></line>
    <line x1="306" y1="180" x2="336" y2="180" class="solid"></line>
    <line x1="306" y1="204" x2="336" y2="204" class="solid"></line>
  </g>
  <g>
    <line x1="270" y1="264" x2="270" y2="468" class="solid"></line>
    <line x1="270" y1="276" x2="300" y2="276" class="solid"></line>
    <line x1="270" y1="300" x2="300" y2="300" class="solid"></line>
    <line x1="270" y1="396" x2="300" y2="396" class="solid"></line>
    <line x1="270" y1="468" x2="300" y2="468" class="solid"></line>
  </g>
  <g>
    <line x1="306" y1="312" x2="306" y2="372" class="solid"></line>
    <line x1="306" y1="324" x2="336" y2="324" class="solid"></line>
    <line x1="306" y1="348" x2="336" y2="348" class="solid"></line>
    <line x1="306" y1="372" x2="336" y2="372" class="solid"></line>
  </g>
  <g>
    <line x1="306" y1="408" x2="306" y2="444" class="solid"></line>
    <line x1="306" y1="420" x2="336" y2="420" class="solid"></line>
    <line x1="306" y1="444" x2="336" y2="444" class="solid"></line>
  </g>
  <g>
    <line x1="270" y1="504" x2="270" y2="540" class="solid"></line>
    <line x1="270" y1="516" x2="300" y2="516" class="solid"></line>
    <line x1="270" y1="540" x2="300" y2="540" class="solid"></line>
  </g>
  <g>
    <line x1="234" y1="576" x2="234" y2="588" class="solid"></line>
    <line x1="234" y1="588" x2="264" y2="588" class="solid"></line>
  </g>
  <g>
    <line x1="234" y1="624" x2="234" y2="636" class="solid"></line>
    <line x1="234" y1="636" x2="264" y2="636" class="solid"></line>
  </g>
  <g>
    <line x1="234" y1="768" x2="234" y2="780" class="solid"></line>
    <line x1="234" y1="780" x2="264" y2="780" class="solid"></line>
  </g>
</svg>
