<svg xmlns="http://www.w3.org/2000/svg" width="612" height="1464" class="svgbob">
  <style>.svgbob line, .svgbob path, .svgbob circle, .svgbob rect, .svgbob polygon {
  stroke: black;
  stroke-width: 2;
  stroke-opacity: 1;
  fill-opacity: 1;
  stroke-linecap: round;
  stroke-linejoin: miter;
}

.svgbob text {
  white-space: pre;
  fill: black;
  font-family: courier new;
  font-size: 21px;
}

.svgbob rect.backdrop {
  stroke: none;
  fill: transparent;
}

.svgbob .broken {
  stroke-dasharray: 8;
}

.svgbob .filled {
  fill: black;
}

.svgbob .bg_filled {
  fill: transparent;
  stroke-width: 1;
}

.svgbob .nofill {
  fill: transparent;
}

.svgbob .end_marked_arrow {
  marker-end: url(#arrow);
}

.svgbob .start_marked_arrow {
  marker-start: url(#arrow);
}

.svgbob .end_marked_diamond {
  marker-end: url(#diamond);
}

.svgbob .start_marked_diamond {
  marker-start: url(#diamond);
}

.svgbob .end_marked_circle {
  marker-end: url(#circle);
}

.svgbob .start_marked_circle {
  marker-start: url(#circle);
}

.svgbob .end_marked_open_circle {
  marker-end: url(#open_circle);
}

.svgbob .start_marked_open_circle {
  marker-start: url(#open_circle);
}

.svgbob .end_marked_big_open_circle {
  marker-end: url(#big_open_circle);
}

.svgbob .start_marked_big_open_circle {
  marker-start: url(#big_open_circle);
}

</style>
  <defs>
    <marker id="arrow" viewBox="-2 -2 8 8" refX="4" refY="2" markerWidth="7" markerHeight="7" orient="auto-start-reverse">
      <polygon points="0,0 0,4 4,2 0,0"></polygon>
    </marker>
    <marker id="diamond" viewBox="-2 -2 8 8" refX="4" refY="2" markerWidth="7" markerHeight="7" orient="auto-start-reverse">
      <polygon points="0,2 2,0 4,2 2,4 0,2"></polygon>
    </marker>
    <marker id="circle" viewBox="0 0 8 8" refX="4" refY="4" markerWidth="7" markerHeight="7" orient="auto-start-reverse">
      <circle cx="4" cy="4" r="2" class="filled"></circle>
    </marker>
    <marker id="open_circle" viewBox="0 0 8 8" refX="4" refY="4" markerWidth="7" markerHeight="7" orient="auto-start-reverse">
      <circle cx="4" cy="4" r="2" class="bg_filled"></circle>
    </marker>
    <marker id="big_open_circle" viewBox="0 0 8 8" refX="4" refY="4" markerWidth="7" markerHeight="7" orient="auto-start-reverse">
      <circle cx="4" cy="4" r="3" class="bg_filled"></circle>
    </marker>
  </defs>
  <rect class="backdrop" x="0" y="0" width="612" height="1464"></rect>
  <text x="3" y="18" >drwxrwxr</text>
  <line x1="96" y1="12" x2="108" y2="12" class="solid"></line>
  <text x="111" y="18" >x</text>
  <text x="3" y="42" >drwxrwxr</text>
  <line x1="96" y1="36" x2="108" y2="36" class="solid"></line>
  <text x="111" y="42" >x</text>
  <text x="3" y="66" >.rw</text>
  <line x1="36" y1="60" x2="48" y2="60" class="solid"></line>
  <text x="51" y="66" >rw</text>
  <line x1="72" y1="60" x2="84" y2="60" class="solid"></line>
  <text x="87" y="66" >r</text>
  <line x1="96" y1="60" x2="120" y2="60" class="solid"></line>
  <text x="3" y="90" >drwxrwxr</text>
  <line x1="96" y1="84" x2="108" y2="84" class="solid"></line>
  <text x="111" y="90" >x</text>
  <text x="3" y="114" >drwxrwxr</text>
  <line x1="96" y1="108" x2="108" y2="108" class="solid"></line>
  <text x="111" y="114" >x</text>
  <text x="3" y="138" >.rw</text>
  <line x1="36" y1="132" x2="48" y2="132" class="solid"></line>
  <text x="51" y="138" >rw</text>
  <line x1="72" y1="132" x2="84" y2="132" class="solid"></line>
  <text x="87" y="138" >r</text>
  <line x1="96" y1="132" x2="120" y2="132" class="solid"></line>
  <text x="3" y="162" >drwxrwxr</text>
  <line x1="96" y1="156" x2="108" y2="156" class="solid"></line>
  <text x="111" y="162" >x</text>
  <text x="3" y="186" >.rw</text>
  <line x1="36" y1="180" x2="48" y2="180" class="solid"></line>
  <text x="51" y="186" >rw</text>
  <line x1="72" y1="180" x2="84" y2="180" class="solid"></line>
  <text x="87" y="186" >r</text>
  <line x1="96" y1="180" x2="120" y2="180" class="solid"></line>
  <text x="3" y="210" >.rw</text>
  <line x1="36" y1="204" x2="48" y2="204" class="solid"></line>
  <text x="51" y="210" >rw</text>
  <line x1="72" y1="204" x2="84" y2="204" class="solid"></line>
  <text x="87" y="210" >r</text>
  <line x1="96" y1="204" x2="120" y2="204" class="solid"></line>
  <text x="3" y="234" >.rw</text>
  <line x1="36" y1="228" x2="48" y2="228" class="solid"></line>
  <text x="51" y="234" >rw</text>
  <line x1="72" y1="228" x2="84" y2="228" class="solid"></line>
  <text x="87" y="234" >r</text>
  <line x1="96" y1="228" x2="120" y2="228" class="solid"></line>
  <text x="3" y="258" >drwxrwxr</text>
  <line x1="96" y1="252" x2="108" y2="252" class="solid"></line>
  <text x="111" y="258" >x</text>
  <text x="3" y="282" >.rw</text>
  <line x1="36" y1="276" x2="48" y2="276" class="solid"></line>
  <text x="51" y="282" >rw</text>
  <line x1="72" y1="276" x2="84" y2="276" class="solid"></line>
  <text x="87" y="282" >r</text>
  <line x1="96" y1="276" x2="120" y2="276" class="solid"></line>
  <text x="3" y="306" >drwxrwxr</text>
  <line x1="96" y1="300" x2="108" y2="300" class="solid"></line>
  <text x="111" y="306" >x</text>
  <text x="3" y="330" >.rw</text>
  <line x1="36" y1="324" x2="48" y2="324" class="solid"></line>
  <text x="51" y="330" >rw</text>
  <line x1="72" y1="324" x2="84" y2="324" class="solid"></line>
  <text x="87" y="330" >r</text>
  <line x1="96" y1="324" x2="120" y2="324" class="solid"></line>
  <text x="3" y="354" >.rw</text>
  <line x1="36" y1="348" x2="48" y2="348" class="solid"></line>
  <text x="51" y="354" >rw</text>
  <line x1="72" y1="348" x2="84" y2="348" class="solid"></line>
  <text x="87" y="354" >r</text>
  <line x1="96" y1="348" x2="120" y2="348" class="solid"></line>
  <text x="3" y="378" >.rw</text>
  <line x1="36" y1="372" x2="48" y2="372" class="solid"></line>
  <text x="51" y="378" >rw</text>
  <line x1="72" y1="372" x2="84" y2="372" class="solid"></line>
  <text x="87" y="378" >r</text>
  <line x1="96" y1="372" x2="120" y2="372" class="solid"></line>
  <text x="3" y="402" >.rw</text>
  <line x1="36" y1="396" x2="48" y2="396" class="solid"></line>
  <text x="51" y="402" >rw</text>
  <line x1="72" y1="396" x2="84" y2="396" class="solid"></line>
  <text x="87" y="402" >r</text>
  <line x1="96" y1="396" x2="120" y2="396" class="solid"></line>
  <text x="3" y="426" >drwxrwxr</text>
  <line x1="96" y1="420" x2="108" y2="420" class="solid"></line>
  <text x="111" y="426" >x</text>
  <text x="3" y="450" >.rw</text>
  <line x1="36" y1="444" x2="48" y2="444" class="solid"></line>
  <text x="51" y="450" >rw</text>
  <line x1="72" y1="444" x2="84" y2="444" class="solid"></line>
  <text x="87" y="450" >r</text>
  <line x1="96" y1="444" x2="120" y2="444" class="solid"></line>
  <text x="3" y="474" >drwxrwxr</text>
  <line x1="96" y1="468" x2="108" y2="468" class="solid"></line>
  <text x="111" y="474" >x</text>
  <text x="3" y="498" >.rw</text>
  <line x1="36" y1="492" x2="48" y2="492" class="solid"></line>
  <text x="51" y="498" >rw</text>
  <line x1="72" y1="492" x2="84" y2="492" class="solid"></line>
  <text x="87" y="498" >r</text>
  <line x1="96" y1="492" x2="120" y2="492" class="solid"></line>
  <text x="3" y="522" >.rwxrwxr</text>
  <line x1="96" y1="516" x2="108" y2="516" class="solid"></line>
  <text x="111" y="522" >x</text>
  <text x="3" y="546" >drwxrwxr</text>
  <line x1="96" y1="540" x2="108" y2="540" class="solid"></line>
  <text x="111" y="546" >x</text>
  <text x="3" y="570" >.rw</text>
  <line x1="36" y1="564" x2="48" y2="564" class="solid"></line>
  <text x="51" y="570" >rw</text>
  <line x1="72" y1="564" x2="84" y2="564" class="solid"></line>
  <text x="87" y="570" >r</text>
  <line x1="96" y1="564" x2="120" y2="564" class="solid"></line>
  <text x="3" y="594" >drwxrwxr</text>
  <line x1="96" y1="588" x2="108" y2="588" class="solid"></line>
  <text x="111" y="594" >x</text>
  <text x="3" y="618" >.rwxrwxr</text>
  <line x1="96" y1="612" x2="108" y2="612" class="solid"></line>
  <text x="111" y="618" >x</text>
  <text x="3" y="642" >.rw</text>
  <line x1="36" y1="636" x2="48" y2="636" class="solid"></line>
  <text x="51" y="642" >rw</text>
  <line x1="72" y1="636" x2="84" y2="636" class="solid"></line>
  <text x="87" y="642" >r</text>
  <line x1="96" y1="636" x2="120" y2="636" class="solid"></line>
  <text x="3" y="666" >.rw</text>
  <line x1="36" y1="660" x2="48" y2="660" class="solid"></line>
  <text x="51" y="666" >rw</text>
  <line x1="72" y1="660" x2="84" y2="660" class="solid"></line>
  <text x="87" y="666" >r</text>
  <line x1="96" y1="660" x2="120" y2="660" class="solid"></line>
  <text x="3" y="690" >.rw</text>
  <line x1="36" y1="684" x2="48" y2="684" class="solid"></line>
  <text x="51" y="690" >rw</text>
  <line x1="72" y1="684" x2="84" y2="684" class="solid"></line>
  <text x="87" y="690" >r</text>
  <line x1="96" y1="684" x2="120" y2="684" class="solid"></line>
  <text x="3" y="714" >.rw</text>
  <line x1="36" y1="708" x2="48" y2="708" class="solid"></line>
  <text x="51" y="714" >rw</text>
  <line x1="72" y1="708" x2="84" y2="708" class="solid"></line>
  <text x="87" y="714" >r</text>
  <line x1="96" y1="708" x2="120" y2="708" class="solid"></line>
  <text x="3" y="738" >drwxrwxr</text>
  <line x1="96" y1="732" x2="108" y2="732" class="solid"></line>
  <text x="111" y="738" >x</text>
  <text x="3" y="762" >.rwxrwxr</text>
  <line x1="96" y1="756" x2="108" y2="756" class="solid"></line>
  <text x="111" y="762" >x</text>
  <text x="3" y="786" >.rw</text>
  <line x1="36" y1="780" x2="48" y2="780" class="solid"></line>
  <text x="51" y="786" >rw</text>
  <line x1="72" y1="780" x2="84" y2="780" class="solid"></line>
  <text x="87" y="786" >r</text>
  <line x1="96" y1="780" x2="120" y2="780" class="solid"></line>
  <text x="3" y="810" >drwxrwxr</text>
  <line x1="96" y1="804" x2="108" y2="804" class="solid"></line>
  <text x="111" y="810" >x</text>
  <text x="3" y="834" >drwxrwxr</text>
  <line x1="96" y1="828" x2="108" y2="828" class="solid"></line>
  <text x="111" y="834" >x</text>
  <text x="3" y="858" >drwxrwxr</text>
  <line x1="96" y1="852" x2="108" y2="852" class="solid"></line>
  <text x="111" y="858" >x</text>
  <text x="3" y="882" >.rw</text>
  <line x1="36" y1="876" x2="48" y2="876" class="solid"></line>
  <text x="51" y="882" >rw</text>
  <line x1="72" y1="876" x2="84" y2="876" class="solid"></line>
  <text x="87" y="882" >r</text>
  <line x1="96" y1="876" x2="120" y2="876" class="solid"></line>
  <text x="3" y="906" >.rw</text>
  <line x1="36" y1="900" x2="48" y2="900" class="solid"></line>
  <text x="51" y="906" >rw</text>
  <line x1="72" y1="900" x2="84" y2="900" class="solid"></line>
  <text x="87" y="906" >r</text>
  <line x1="96" y1="900" x2="120" y2="900" class="solid"></line>
  <text x="3" y="930" >.rw</text>
  <line x1="36" y1="924" x2="48" y2="924" class="solid"></line>
  <text x="51" y="930" >rw</text>
  <line x1="72" y1="924" x2="84" y2="924" class="solid"></line>
  <text x="87" y="930" >r</text>
  <line x1="96" y1="924" x2="120" y2="924" class="solid"></line>
  <text x="3" y="954" >drwxrwxr</text>
  <line x1="96" y1="948" x2="108" y2="948" class="solid"></line>
  <text x="111" y="954" >x</text>
  <text x="3" y="978" >drwxrwxr</text>
  <line x1="96" y1="972" x2="108" y2="972" class="solid"></line>
  <text x="111" y="978" >x</text>
  <text x="3" y="1002" >drwxrwxr</text>
  <line x1="96" y1="996" x2="108" y2="996" class="solid"></line>
  <text x="111" y="1002" >x</text>
  <text x="3" y="1026" >drwxrwxr</text>
  <line x1="96" y1="1020" x2="108" y2="1020" class="solid"></line>
  <text x="111" y="1026" >x</text>
  <text x="3" y="1050" >drwxrwxr</text>
  <line x1="96" y1="1044" x2="108" y2="1044" class="solid"></line>
  <text x="111" y="1050" >x</text>
  <text x="3" y="1074" >.rw</text>
  <line x1="36" y1="1068" x2="48" y2="1068" class="solid"></line>
  <text x="51" y="1074" >rw</text>
  <line x1="72" y1="1068" x2="84" y2="1068" class="solid"></line>
  <text x="87" y="1074" >r</text>
  <line x1="96" y1="1068" x2="120" y2="1068" class="solid"></line>
  <text x="3" y="1098" >.rw</text>
  <line x1="36" y1="1092" x2="48" y2="1092" class="solid"></line>
  <text x="51" y="1098" >rw</text>
  <line x1="72" y1="1092" x2="84" y2="1092" class="solid"></line>
  <text x="87" y="1098" >r</text>
  <line x1="96" y1="1092" x2="120" y2="1092" class="solid"></line>
  <text x="3" y="1122" >.rw</text>
  <line x1="36" y1="1116" x2="48" y2="1116" class="solid"></line>
  <text x="51" y="1122" >rw</text>
  <line x1="72" y1="1116" x2="84" y2="1116" class="solid"></line>
  <text x="87" y="1122" >r</text>
  <line x1="96" y1="1116" x2="120" y2="1116" class="solid"></line>
  <text x="3" y="1146" >.rw</text>
  <line x1="36" y1="1140" x2="48" y2="1140" class="solid"></line>
  <text x="51" y="1146" >rw</text>
  <line x1="72" y1="1140" x2="84" y2="1140" class="solid"></line>
  <text x="87" y="1146" >r</text>
  <line x1="96" y1="1140" x2="120" y2="1140" class="solid"></line>
  <text x="3" y="1170" >.rw</text>
  <line x1="36" y1="1164" x2="48" y2="1164" class="solid"></line>
  <text x="51" y="1170" >rw</text>
  <line x1="72" y1="1164" x2="84" y2="1164" class="solid"></line>
  <text x="87" y="1170" >r</text>
  <line x1="96" y1="1164" x2="120" y2="1164" class="solid"></line>
  <text x="3" y="1194" >.rw</text>
  <line x1="36" y1="1188" x2="48" y2="1188" class="solid"></line>
  <text x="51" y="1194" >rw</text>
  <line x1="72" y1="1188" x2="84" y2="1188" class="solid"></line>
  <text x="87" y="1194" >r</text>
  <line x1="96" y1="1188" x2="120" y2="1188" class="solid"></line>
  <text x="3" y="1218" >.rw</text>
  <line x1="36" y1="1212" x2="48" y2="1212" class="solid"></line>
  <text x="51" y="1218" >rw</text>
  <line x1="72" y1="1212" x2="84" y2="1212" class="solid"></line>
  <text x="87" y="1218" >r</text>
  <line x1="96" y1="1212" x2="120" y2="1212" class="solid"></line>
  <text x="3" y="1242" >.rw</text>
  <line x1="36" y1="1236" x2="48" y2="1236" class="solid"></line>
  <text x="51" y="1242" >rw</text>
  <line x1="72" y1="1236" x2="84" y2="1236" class="solid"></line>
  <text x="87" y="1242" >r</text>
  <line x1="96" y1="1236" x2="120" y2="1236" class="solid"></line>
  <text x="3" y="1266" >drwxrwxr</text>
  <line x1="96" y1="1260" x2="108" y2="1260" class="solid"></line>
  <text x="111" y="1266" >x</text>
  <text x="3" y="1290" >.rwxrwxr</text>
  <line x1="96" y1="1284" x2="108" y2="1284" class="solid"></line>
  <text x="111" y="1290" >x</text>
  <text x="3" y="1314" >.rwxrwxr</text>
  <line x1="96" y1="1308" x2="108" y2="1308" class="solid"></line>
  <text x="111" y="1314" >x</text>
  <text x="3" y="1338" >drwxrwxr</text>
  <line x1="96" y1="1332" x2="108" y2="1332" class="solid"></line>
  <text x="111" y="1338" >x</text>
  <text x="3" y="1362" >drwxrwxr</text>
  <line x1="96" y1="1356" x2="108" y2="1356" class="solid"></line>
  <text x="111" y="1362" >x</text>
  <text x="3" y="1386" >.rw</text>
  <line x1="36" y1="1380" x2="48" y2="1380" class="solid"></line>
  <text x="51" y="1386" >rw</text>
  <line x1="72" y1="1380" x2="84" y2="1380" class="solid"></line>
  <text x="87" y="1386" >r</text>
  <line x1="96" y1="1380" x2="120" y2="1380" class="solid"></line>
  <text x="3" y="1410" >.rw</text>
  <line x1="36" y1="1404" x2="48" y2="1404" class="solid"></line>
  <text x="51" y="1410" >rw</text>
  <line x1="72" y1="1404" x2="84" y2="1404" class="solid"></line>
  <text x="87" y="1410" >r</text>
  <line x1="96" y1="1404" x2="120" y2="1404" class="solid"></line>
  <text x="3" y="1434" >.rw</text>
  <line x1="36" y1="1428" x2="48" y2="1428" class="solid"></line>
  <text x="51" y="1434" >rw</text>
  <line x1="72" y1="1428" x2="84" y2="1428" class="solid"></line>
  <text x="87" y="1434" >r</text>
  <line x1="96" y1="1428" x2="120" y2="1428" class="solid"></line>
  <line x1="168" y1="12" x2="180" y2="12" class="solid"></line>
  <line x1="168" y1="36" x2="180" y2="36" class="solid"></line>
  <text x="171" y="66" >0</text>
  <line x1="168" y1="84" x2="180" y2="84" class="solid"></line>
  <line x1="168" y1="108" x2="180" y2="108" class="solid"></line>
  <text x="171" y="138" >0</text>
  <line x1="168" y1="156" x2="180" y2="156" class="solid"></line>
  <text x="147" y="186" >167</text>
  <text x="171" y="210" >0</text>
  <text x="171" y="234" >0</text>
  <line x1="168" y1="252" x2="180" y2="252" class="solid"></line>
  <text x="135" y="282" >2.3k</text>
  <line x1="168" y1="300" x2="180" y2="300" class="solid"></line>
  <text x="135" y="330" >1.2k</text>
  <text x="159" y="354" >17</text>
  <text x="135" y="378" >4.6k</text>
  <text x="135" y="402" >3.8k</text>
  <line x1="168" y1="420" x2="180" y2="420" class="solid"></line>
  <text x="171" y="450" >0</text>
  <line x1="168" y1="468" x2="180" y2="468" class="solid"></line>
  <text x="159" y="498" >15</text>
  <text x="147" y="522" >641</text>
  <line x1="168" y1="540" x2="180" y2="540" class="solid"></line>
  <text x="171" y="570" >0</text>
  <line x1="168" y1="588" x2="180" y2="588" class="solid"></line>
  <text x="147" y="618" >399</text>
  <text x="147" y="642" >550</text>
  <text x="135" y="666" >2.6k</text>
  <text x="147" y="690" >318</text>
  <text x="147" y="714" >509</text>
  <line x1="168" y1="732" x2="180" y2="732" class="solid"></line>
  <text x="147" y="762" >513</text>
  <text x="171" y="786" >0</text>
  <line x1="168" y1="804" x2="180" y2="804" class="solid"></line>
  <line x1="168" y1="828" x2="180" y2="828" class="solid"></line>
  <line x1="168" y1="852" x2="180" y2="852" class="solid"></line>
  <text x="147" y="882" >51k</text>
  <text x="147" y="906" >51k</text>
  <text x="135" y="930" >1.1k</text>
  <line x1="168" y1="948" x2="180" y2="948" class="solid"></line>
  <line x1="168" y1="972" x2="180" y2="972" class="solid"></line>
  <line x1="168" y1="996" x2="180" y2="996" class="solid"></line>
  <line x1="168" y1="1020" x2="180" y2="1020" class="solid"></line>
  <line x1="168" y1="1044" x2="180" y2="1044" class="solid"></line>
  <text x="135" y="1074" >468k</text>
  <text x="135" y="1098" >608k</text>
  <text x="135" y="1122" >851k</text>
  <text x="135" y="1146" >404k</text>
  <text x="135" y="1170" >547k</text>
  <text x="135" y="1194" >805k</text>
  <text x="135" y="1218" >6.5k</text>
  <text x="159" y="1242" >61</text>
  <line x1="168" y1="1260" x2="180" y2="1260" class="solid"></line>
  <text x="147" y="1290" >18k</text>
  <text x="135" y="1314" >5.4k</text>
  <line x1="168" y1="1332" x2="180" y2="1332" class="solid"></line>
  <line x1="168" y1="1356" x2="180" y2="1356" class="solid"></line>
  <text x="135" y="1386" >2.8k</text>
  <text x="147" y="1410" >290</text>
  <text x="135" y="1434" >2.6k</text>
  <text x="243" y="42" >assets</text>
  <text x="279" y="66" >dir.svg</text>
  <text x="243" y="90" >cmd</text>
  <text x="279" y="114" >analysis</text>
  <text x="315" y="138" >app.go</text>
  <text x="315" y="162" >internal</text>
  <text x="351" y="186" >analysis.go</text>
  <text x="351" y="210" >types.go</text>
  <text x="315" y="234" >test.go</text>
  <text x="279" y="258" >postgres</text>
  <text x="315" y="282" >app.go</text>
  <text x="315" y="306" >internal</text>
  <text x="351" y="330" >migrate.go</text>
  <text x="351" y="354" >read.go</text>
  <text x="351" y="378" >types.go</text>
  <text x="351" y="402" >write.go</text>
  <text x="315" y="426" >migrate</text>
  <text x="315" y="450" >test.go</text>
  <text x="279" y="474" >scrape</text>
  <text x="315" y="498" >app.go</text>
  <text x="315" y="522" >scrape.sh</text>
  <text x="243" y="546" >config</text>
  <text x="279" y="570" >postgres.yaml</text>
  <text x="243" y="594" >githooks</text>
  <text x="279" y="618" >pre</text>
  <line x1="312" y1="612" x2="324" y2="612" class="solid"></line>
  <text x="327" y="618" >commit</text>
  <text x="243" y="642" >go.mod</text>
  <text x="243" y="666" >go.sum</text>
  <text x="243" y="690" >Makefile</text>
  <text x="243" y="714" >README.md</text>
  <text x="243" y="738" >scripts</text>
  <text x="279" y="762" >scrape.sh</text>
  <text x="243" y="786" >test.txt</text>
  <text x="243" y="810" >tools</text>
  <text x="279" y="834" >rpscrape</text>
  <text x="315" y="858" >courses</text>
  <line x1="348" y1="888" x2="360" y2="888" class="solid"></line>
  <text x="363" y="882" >courses</text>
  <line x1="348" y1="912" x2="360" y2="912" class="solid"></line>
  <text x="363" y="906" >courses.json</text>
  <line x1="348" y1="936" x2="360" y2="936" class="solid"></line>
  <text x="363" y="930" >regions</text>
  <text x="315" y="954" >data</text>
  <text x="351" y="978" >all</text>
  <text x="351" y="1002" >courses</text>
  <text x="351" y="1026" >regions</text>
  <text x="315" y="1050" >racecards</text>
  <text x="351" y="1074" >2023</text>
  <line x1="396" y1="1068" x2="408" y2="1068" class="solid"></line>
  <text x="411" y="1074" >11</text>
  <line x1="432" y1="1068" x2="444" y2="1068" class="solid"></line>
  <text x="447" y="1074" >14.json</text>
  <text x="351" y="1098" >2023</text>
  <line x1="396" y1="1092" x2="408" y2="1092" class="solid"></line>
  <text x="411" y="1098" >11</text>
  <line x1="432" y1="1092" x2="444" y2="1092" class="solid"></line>
  <text x="447" y="1098" >16.json</text>
  <text x="351" y="1122" >2023</text>
  <line x1="396" y1="1116" x2="408" y2="1116" class="solid"></line>
  <text x="411" y="1122" >11</text>
  <line x1="432" y1="1116" x2="444" y2="1116" class="solid"></line>
  <text x="447" y="1122" >17.json</text>
  <text x="351" y="1146" >2023</text>
  <line x1="396" y1="1140" x2="408" y2="1140" class="solid"></line>
  <text x="411" y="1146" >11</text>
  <line x1="432" y1="1140" x2="444" y2="1140" class="solid"></line>
  <text x="447" y="1146" >20.json</text>
  <text x="351" y="1170" >2023</text>
  <line x1="396" y1="1164" x2="408" y2="1164" class="solid"></line>
  <text x="411" y="1170" >11</text>
  <line x1="432" y1="1164" x2="444" y2="1164" class="solid"></line>
  <text x="447" y="1170" >21.json</text>
  <text x="351" y="1194" >2023</text>
  <line x1="396" y1="1188" x2="408" y2="1188" class="solid"></line>
  <text x="411" y="1194" >11</text>
  <line x1="432" y1="1188" x2="444" y2="1188" class="solid"></line>
  <text x="447" y="1194" >24.json</text>
  <text x="315" y="1218" >README.md</text>
  <text x="315" y="1242" >requirements.txt</text>
  <text x="315" y="1266" >scripts</text>
  <text x="351" y="1290" >racecards.py</text>
  <text x="351" y="1314" >rpscrape.py</text>
  <text x="351" y="1338" >utils</text>
  <text x="315" y="1362" >settings</text>
  <text x="351" y="1386" >default</text>
  <line x1="432" y1="1392" x2="444" y2="1392" class="solid"></line>
  <text x="447" y="1386" >settings.toml</text>
  <text x="351" y="1410" >README.md</text>
  <text x="351" y="1434" >user</text>
  <line x1="396" y1="1440" x2="408" y2="1440" class="solid"></line>
  <text x="411" y="1434" >settings.toml</text>
  <g>
    <line x1="198" y1="18" x2="198" y2="804" class="solid"></line>
    <line x1="198" y1="36" x2="228" y2="36" class="solid"></line>
    <line x1="198" y1="84" x2="228" y2="84" class="solid"></line>
    <line x1="198" y1="540" x2="228" y2="540" class="solid"></line>
    <line x1="198" y1="588" x2="228" y2="588" class="solid"></line>
    <line x1="198" y1="636" x2="228" y2="636" class="solid"></line>
    <line x1="198" y1="660" x2="228" y2="660" class="solid"></line>
    <line x1="198" y1="684" x2="228" y2="684" class="solid"></line>
    <line x1="198" y1="708" x2="228" y2="708" class="solid"></line>
    <line x1="198" y1="732" x2="228" y2="732" class="solid"></line>
    <line x1="198" y1="780" x2="228" y2="780" class="solid"></line>
    <line x1="198" y1="804" x2="228" y2="804" class="solid"></line>
  </g>
  <g>
    <line x1="234" y1="48" x2="234" y2="60" class="solid"></line>
    <line x1="234" y1="60" x2="264" y2="60" class="solid"></line>
  </g>
  <g>
    <line x1="234" y1="96" x2="234" y2="468" class="solid"></line>
    <line x1="234" y1="108" x2="264" y2="108" class="solid"></line>
    <line x1="234" y1="252" x2="264" y2="252" class="solid"></line>
    <line x1="234" y1="468" x2="264" y2="468" class="solid"></line>
  </g>
  <g>
    <line x1="270" y1="120" x2="270" y2="228" class="solid"></line>
    <line x1="270" y1="132" x2="300" y2="132" class="solid"></line>
    <line x1="270" y1="156" x2="300" y2="156" class="solid"></line>
    <line x1="270" y1="228" x2="300" y2="228" class="solid"></line>
  </g>
  <g>
    <line x1="306" y1="168" x2="306" y2="204" class="solid"></line>
    <line x1="306" y1="180" x2="336" y2="180" class="solid"></line>
    <line x1="306" y1="204" x2="336" y2="204" class="solid"></line>
  </g>
  <g>
    <line x1="270" y1="264" x2="270" y2="444" class="solid"></line>
    <line x1="270" y1="276" x2="300" y2="276" class="solid"></line>
    <line x1="270" y1="300" x2="300" y2="300" class="solid"></line>
    <line x1="270" y1="420" x2="300" y2="420" class="solid"></line>
    <line x1="270" y1="444" x2="300" y2="444" class="solid"></line>
  </g>
  <g>
    <line x1="306" y1="312" x2="306" y2="396" class="solid"></line>
    <line x1="306" y1="324" x2="336" y2="324" class="solid"></line>
    <line x1="306" y1="348" x2="336" y2="348" class="solid"></line>
    <line x1="306" y1="372" x2="336" y2="372" class="solid"></line>
    <line x1="306" y1="396" x2="336" y2="396" class="solid"></line>
  </g>
  <g>
    <line x1="270" y1="480" x2="270" y2="516" class="solid"></line>
    <line x1="270" y1="492" x2="300" y2="492" class="solid"></line>
    <line x1="270" y1="516" x2="300" y2="516" class="solid"></line>
  </g>
  <g>
    <line x1="234" y1="552" x2="234" y2="564" class="solid"></line>
    <line x1="234" y1="564" x2="264" y2="564" class="solid"></line>
  </g>
  <g>
    <line x1="234" y1="600" x2="234" y2="612" class="solid"></line>
    <line x1="234" y1="612" x2="264" y2="612" class="solid"></line>
  </g>
  <g>
    <line x1="234" y1="744" x2="234" y2="756" class="solid"></line>
    <line x1="234" y1="756" x2="264" y2="756" class="solid"></line>
  </g>
  <g>
    <line x1="234" y1="816" x2="234" y2="828" class="solid"></line>
    <line x1="234" y1="828" x2="264" y2="828" class="solid"></line>
  </g>
  <g>
    <line x1="270" y1="840" x2="270" y2="1356" class="solid"></line>
    <line x1="270" y1="852" x2="300" y2="852" class="solid"></line>
    <line x1="270" y1="948" x2="300" y2="948" class="solid"></line>
    <line x1="270" y1="1044" x2="300" y2="1044" class="solid"></line>
    <line x1="270" y1="1212" x2="300" y2="1212" class="solid"></line>
    <line x1="270" y1="1236" x2="300" y2="1236" class="solid"></line>
    <line x1="270" y1="1260" x2="300" y2="1260" class="solid"></line>
    <line x1="270" y1="1356" x2="300" y2="1356" class="solid"></line>
  </g>
  <g>
    <line x1="306" y1="864" x2="306" y2="924" class="solid"></line>
    <line x1="306" y1="876" x2="336" y2="876" class="solid"></line>
    <line x1="306" y1="900" x2="336" y2="900" class="solid"></line>
    <line x1="306" y1="924" x2="336" y2="924" class="solid"></line>
  </g>
  <g>
    <line x1="306" y1="960" x2="306" y2="1020" class="solid"></line>
    <line x1="306" y1="972" x2="336" y2="972" class="solid"></line>
    <line x1="306" y1="996" x2="336" y2="996" class="solid"></line>
    <line x1="306" y1="1020" x2="336" y2="1020" class="solid"></line>
  </g>
  <g>
    <line x1="306" y1="1056" x2="306" y2="1188" class="solid"></line>
    <line x1="306" y1="1068" x2="336" y2="1068" class="solid"></line>
    <line x1="306" y1="1092" x2="336" y2="1092" class="solid"></line>
    <line x1="306" y1="1116" x2="336" y2="1116" class="solid"></line>
    <line x1="306" y1="1140" x2="336" y2="1140" class="solid"></line>
    <line x1="306" y1="1164" x2="336" y2="1164" class="solid"></line>
    <line x1="306" y1="1188" x2="336" y2="1188" class="solid"></line>
  </g>
  <g>
    <line x1="306" y1="1272" x2="306" y2="1332" class="solid"></line>
    <line x1="306" y1="1284" x2="336" y2="1284" class="solid"></line>
    <line x1="306" y1="1308" x2="336" y2="1308" class="solid"></line>
    <line x1="306" y1="1332" x2="336" y2="1332" class="solid"></line>
  </g>
  <g>
    <line x1="306" y1="1368" x2="306" y2="1428" class="solid"></line>
    <line x1="306" y1="1380" x2="336" y2="1380" class="solid"></line>
    <line x1="306" y1="1404" x2="336" y2="1404" class="solid"></line>
    <line x1="306" y1="1428" x2="336" y2="1428" class="solid"></line>
  </g>
</svg>
