<svg xmlns="http://www.w3.org/2000/svg" width="1000" height="888" class="svgbob">
  <style>.svgbob line, .svgbob path, .svgbob circle, .svgbob rect, .svgbob polygon {
  stroke: #CCC;
  stroke-width: 2;
  stroke-opacity: 1;
  fill-opacity: 1;
  stroke-linecap: round;
  stroke-linejoin: miter;
}

.svgbob text {
  white-space: pre;
  fill: #CCC;
  font-family: courier new;
  font-size: 21px;
}

.svgbob rect.backdrop {
  stroke: none;
  fill: #111;
}

.svgbob .broken {
  stroke-dasharray: 8;
}

.svgbob .filled {
  fill: black;
}

.svgbob .bg_filled {
  fill: #111;
  stroke-width: 1;
}

.svgbob .nofill {
  fill: #111;
}

.svgbob .end_marked_arrow {
  marker-end: url(#arrow);
}

.svgbob .start_marked_arrow {
  marker-start: url(#arrow);
}

.svgbob .end_marked_diamond {
  marker-end: url(#diamond);
}

.svgbob .start_marked_diamond {
  marker-start: url(#diamond);
}

.svgbob .end_marked_circle {
  marker-end: url(#circle);
}

.svgbob .start_marked_circle {
  marker-start: url(#circle);
}

.svgbob .end_marked_open_circle {
  marker-end: url(#open_circle);
}

.svgbob .start_marked_open_circle {
  marker-start: url(#open_circle);
}

.svgbob .end_marked_big_open_circle {
  marker-end: url(#big_open_circle);
}

.svgbob .start_marked_big_open_circle {
  marker-start: url(#big_open_circle);
}

</style>
  <defs>
    <marker id="arrow" viewBox="-2 -2 8 8" refX="4" refY="2" markerWidth="7" markerHeight="7" orient="auto-start-reverse">
      <polygon points="0,0 0,4 4,2 0,0"></polygon>
    </marker>
    <marker id="diamond" viewBox="-2 -2 8 8" refX="4" refY="2" markerWidth="7" markerHeight="7" orient="auto-start-reverse">
      <polygon points="0,2 2,0 4,2 2,4 0,2"></polygon>
    </marker>
    <marker id="circle" viewBox="0 0 8 8" refX="4" refY="4" markerWidth="7" markerHeight="7" orient="auto-start-reverse">
      <circle cx="4" cy="4" r="2" class="filled"></circle>
    </marker>
    <marker id="open_circle" viewBox="0 0 8 8" refX="4" refY="4" markerWidth="7" markerHeight="7" orient="auto-start-reverse">
      <circle cx="4" cy="4" r="2" class="bg_filled"></circle>
    </marker>
    <marker id="big_open_circle" viewBox="0 0 8 8" refX="4" refY="4" markerWidth="7" markerHeight="7" orient="auto-start-reverse">
      <circle cx="4" cy="4" r="3" class="bg_filled"></circle>
    </marker>
  </defs>
  <rect class="backdrop" x="0" y="0" width="636" height="888"></rect>
  <text x="3" y="18" >drwxrwxr</text>
  <line x1="96" y1="12" x2="108" y2="12" class="solid"></line>
  <text x="111" y="18" >x</text>
  <text x="3" y="42" >drwxrwxr</text>
  <line x1="96" y1="36" x2="108" y2="36" class="solid"></line>
  <text x="111" y="42" >x</text>
  <text x="3" y="66" >.rw</text>
  <line x1="36" y1="60" x2="48" y2="60" class="solid"></line>
  <text x="51" y="66" >rw</text>
  <line x1="72" y1="60" x2="84" y2="60" class="solid"></line>
  <text x="87" y="66" >r</text>
  <line x1="96" y1="60" x2="120" y2="60" class="solid"></line>
  <text x="3" y="90" >drwxrwxr</text>
  <line x1="96" y1="84" x2="108" y2="84" class="solid"></line>
  <text x="111" y="90" >x</text>
  <text x="3" y="114" >drwxrwxr</text>
  <line x1="96" y1="108" x2="108" y2="108" class="solid"></line>
  <text x="111" y="114" >x</text>
  <text x="3" y="138" >.rw</text>
  <line x1="36" y1="132" x2="48" y2="132" class="solid"></line>
  <text x="51" y="138" >rw</text>
  <line x1="72" y1="132" x2="84" y2="132" class="solid"></line>
  <text x="87" y="138" >r</text>
  <line x1="96" y1="132" x2="120" y2="132" class="solid"></line>
  <text x="3" y="162" >.rw</text>
  <line x1="36" y1="156" x2="48" y2="156" class="solid"></line>
  <text x="51" y="162" >rw</text>
  <line x1="72" y1="156" x2="84" y2="156" class="solid"></line>
  <text x="87" y="162" >r</text>
  <line x1="96" y1="156" x2="120" y2="156" class="solid"></line>
  <text x="3" y="186" >.rw</text>
  <line x1="36" y1="180" x2="48" y2="180" class="solid"></line>
  <text x="51" y="186" >rw</text>
  <line x1="72" y1="180" x2="84" y2="180" class="solid"></line>
  <text x="87" y="186" >r</text>
  <line x1="96" y1="180" x2="120" y2="180" class="solid"></line>
  <text x="3" y="210" >drwxrwxr</text>
  <line x1="96" y1="204" x2="108" y2="204" class="solid"></line>
  <text x="111" y="210" >x</text>
  <text x="3" y="234" >.rw</text>
  <line x1="36" y1="228" x2="48" y2="228" class="solid"></line>
  <text x="51" y="234" >rw</text>
  <line x1="72" y1="228" x2="84" y2="228" class="solid"></line>
  <text x="87" y="234" >r</text>
  <line x1="96" y1="228" x2="120" y2="228" class="solid"></line>
  <text x="3" y="258" >.rwxrwxr</text>
  <line x1="96" y1="252" x2="108" y2="252" class="solid"></line>
  <text x="111" y="258" >x</text>
  <text x="3" y="282" >.rw</text>
  <line x1="36" y1="276" x2="48" y2="276" class="solid"></line>
  <text x="51" y="282" >rw</text>
  <line x1="72" y1="276" x2="84" y2="276" class="solid"></line>
  <text x="87" y="282" >r</text>
  <line x1="96" y1="276" x2="120" y2="276" class="solid"></line>
  <text x="3" y="306" >drwxrwxr</text>
  <line x1="96" y1="300" x2="108" y2="300" class="solid"></line>
  <text x="111" y="306" >x</text>
  <text x="3" y="330" >drwxrwxr</text>
  <line x1="96" y1="324" x2="108" y2="324" class="solid"></line>
  <text x="111" y="330" >x</text>
  <text x="3" y="354" >.rw</text>
  <line x1="36" y1="348" x2="48" y2="348" class="solid"></line>
  <text x="51" y="354" >rw</text>
  <line x1="72" y1="348" x2="84" y2="348" class="solid"></line>
  <text x="87" y="354" >r</text>
  <line x1="96" y1="348" x2="120" y2="348" class="solid"></line>
  <text x="3" y="378" >.rw</text>
  <line x1="36" y1="372" x2="48" y2="372" class="solid"></line>
  <text x="51" y="378" >rw</text>
  <line x1="72" y1="372" x2="84" y2="372" class="solid"></line>
  <text x="87" y="378" >r</text>
  <line x1="96" y1="372" x2="120" y2="372" class="solid"></line>
  <text x="3" y="402" >.rw</text>
  <line x1="36" y1="396" x2="48" y2="396" class="solid"></line>
  <text x="51" y="402" >rw</text>
  <line x1="72" y1="396" x2="84" y2="396" class="solid"></line>
  <text x="87" y="402" >r</text>
  <line x1="96" y1="396" x2="120" y2="396" class="solid"></line>
  <text x="3" y="426" >.rw</text>
  <line x1="36" y1="420" x2="48" y2="420" class="solid"></line>
  <text x="51" y="426" >rw</text>
  <line x1="72" y1="420" x2="84" y2="420" class="solid"></line>
  <text x="87" y="426" >r</text>
  <line x1="96" y1="420" x2="120" y2="420" class="solid"></line>
  <text x="3" y="450" >.rw</text>
  <line x1="36" y1="444" x2="48" y2="444" class="solid"></line>
  <text x="51" y="450" >rw</text>
  <line x1="72" y1="444" x2="84" y2="444" class="solid"></line>
  <text x="87" y="450" >r</text>
  <line x1="96" y1="444" x2="120" y2="444" class="solid"></line>
  <text x="3" y="474" >drwxrwxr</text>
  <line x1="96" y1="468" x2="108" y2="468" class="solid"></line>
  <text x="111" y="474" >x</text>
  <text x="3" y="498" >.rw</text>
  <line x1="36" y1="492" x2="48" y2="492" class="solid"></line>
  <text x="51" y="498" >rw</text>
  <line x1="72" y1="492" x2="84" y2="492" class="solid"></line>
  <text x="87" y="498" >r</text>
  <line x1="96" y1="492" x2="120" y2="492" class="solid"></line>
  <text x="3" y="522" >.rw</text>
  <line x1="36" y1="516" x2="48" y2="516" class="solid"></line>
  <text x="51" y="522" >rw</text>
  <line x1="72" y1="516" x2="84" y2="516" class="solid"></line>
  <text x="87" y="522" >r</text>
  <line x1="96" y1="516" x2="120" y2="516" class="solid"></line>
  <text x="3" y="546" >.rw</text>
  <line x1="36" y1="540" x2="48" y2="540" class="solid"></line>
  <text x="51" y="546" >rw</text>
  <line x1="72" y1="540" x2="84" y2="540" class="solid"></line>
  <text x="87" y="546" >r</text>
  <line x1="96" y1="540" x2="120" y2="540" class="solid"></line>
  <text x="3" y="570" >.rw</text>
  <line x1="36" y1="564" x2="48" y2="564" class="solid"></line>
  <text x="51" y="570" >rw</text>
  <line x1="72" y1="564" x2="84" y2="564" class="solid"></line>
  <text x="87" y="570" >r</text>
  <line x1="96" y1="564" x2="120" y2="564" class="solid"></line>
  <text x="3" y="594" >drwxrwxr</text>
  <line x1="96" y1="588" x2="108" y2="588" class="solid"></line>
  <text x="111" y="594" >x</text>
  <text x="3" y="618" >.rw</text>
  <line x1="36" y1="612" x2="48" y2="612" class="solid"></line>
  <text x="51" y="618" >rw</text>
  <line x1="72" y1="612" x2="84" y2="612" class="solid"></line>
  <text x="87" y="618" >r</text>
  <line x1="96" y1="612" x2="120" y2="612" class="solid"></line>
  <text x="3" y="642" >drwxrwxr</text>
  <line x1="96" y1="636" x2="108" y2="636" class="solid"></line>
  <text x="111" y="642" >x</text>
  <text x="3" y="666" >.rwxrwxr</text>
  <line x1="96" y1="660" x2="108" y2="660" class="solid"></line>
  <text x="111" y="666" >x</text>
  <text x="3" y="690" >.rw</text>
  <line x1="36" y1="684" x2="48" y2="684" class="solid"></line>
  <text x="51" y="690" >rw</text>
  <line x1="72" y1="684" x2="84" y2="684" class="solid"></line>
  <text x="87" y="690" >r</text>
  <line x1="96" y1="684" x2="120" y2="684" class="solid"></line>
  <text x="3" y="714" >.rw</text>
  <line x1="36" y1="708" x2="48" y2="708" class="solid"></line>
  <text x="51" y="714" >rw</text>
  <line x1="72" y1="708" x2="84" y2="708" class="solid"></line>
  <text x="87" y="714" >r</text>
  <line x1="96" y1="708" x2="120" y2="708" class="solid"></line>
  <text x="3" y="738" >.rw</text>
  <line x1="36" y1="732" x2="48" y2="732" class="solid"></line>
  <text x="51" y="738" >rw</text>
  <line x1="72" y1="732" x2="84" y2="732" class="solid"></line>
  <text x="87" y="738" >r</text>
  <line x1="96" y1="732" x2="120" y2="732" class="solid"></line>
  <text x="3" y="762" >.rw</text>
  <line x1="36" y1="756" x2="48" y2="756" class="solid"></line>
  <text x="51" y="762" >rw</text>
  <line x1="72" y1="756" x2="84" y2="756" class="solid"></line>
  <text x="87" y="762" >r</text>
  <line x1="96" y1="756" x2="120" y2="756" class="solid"></line>
  <text x="3" y="786" >drwxrwxr</text>
  <line x1="96" y1="780" x2="108" y2="780" class="solid"></line>
  <text x="111" y="786" >x</text>
  <text x="3" y="810" >.rwxrwxr</text>
  <line x1="96" y1="804" x2="108" y2="804" class="solid"></line>
  <text x="111" y="810" >x</text>
  <text x="3" y="834" >.rwxrwxr</text>
  <line x1="96" y1="828" x2="108" y2="828" class="solid"></line>
  <text x="111" y="834" >x</text>
  <text x="3" y="858" >.rwxrwxr</text>
  <line x1="96" y1="852" x2="108" y2="852" class="solid"></line>
  <text x="111" y="858" >x</text>
  <line x1="168" y1="12" x2="180" y2="12" class="solid"></line>
  <line x1="168" y1="36" x2="180" y2="36" class="solid"></line>
  <text x="171" y="66" >0</text>
  <line x1="168" y1="84" x2="180" y2="84" class="solid"></line>
  <line x1="168" y1="108" x2="180" y2="108" class="solid"></line>
  <text x="147" y="138" >193</text>
  <text x="159" y="162" >17</text>
  <text x="159" y="186" >17</text>
  <line x1="168" y1="204" x2="180" y2="204" class="solid"></line>
  <text x="159" y="234" >16</text>
  <text x="147" y="258" >641</text>
  <text x="135" y="282" >2.7k</text>
  <line x1="168" y1="300" x2="180" y2="300" class="solid"></line>
  <line x1="168" y1="324" x2="180" y2="324" class="solid"></line>
  <text x="159" y="354" >19</text>
  <text x="135" y="378" >1.7k</text>
  <text x="135" y="402" >4.6k</text>
  <text x="135" y="426" >4.5k</text>
  <text x="135" y="450" >2.0k</text>
  <line x1="168" y1="468" x2="180" y2="468" class="solid"></line>
  <text x="147" y="498" >282</text>
  <text x="135" y="522" >3.1k</text>
  <text x="159" y="546" >56</text>
  <text x="147" y="570" >33k</text>
  <line x1="168" y1="588" x2="180" y2="588" class="solid"></line>
  <text x="171" y="618" >0</text>
  <line x1="168" y1="636" x2="180" y2="636" class="solid"></line>
  <text x="147" y="666" >479</text>
  <text x="147" y="690" >481</text>
  <text x="135" y="714" >2.4k</text>
  <text x="147" y="738" >361</text>
  <text x="147" y="762" >308</text>
  <line x1="168" y1="780" x2="180" y2="780" class="solid"></line>
  <text x="147" y="810" >464</text>
  <text x="147" y="834" >513</text>
  <text x="147" y="858" >206</text>
  <text x="243" y="42" >assets</text>
  <text x="279" y="66" >dir.svg</text>
  <text x="243" y="90" >cmd</text>
  <text x="279" y="114" >analysis</text>
  <text x="315" y="138" >analysis.go</text>
  <text x="315" y="162" >app.go</text>
  <text x="315" y="186" >types.go</text>
  <text x="279" y="210" >collect</text>
  <text x="315" y="234" >app.go</text>
  <text x="315" y="258" >racingpost</text>
  <text x="315" y="282" >types.go</text>
  <text x="279" y="306" >repository</text>
  <text x="315" y="330" >internal</text>
  <text x="351" y="354" >read.go</text>
  <text x="351" y="378" >test.go</text>
  <text x="351" y="402" >types.go</text>
  <text x="351" y="426" >write.go</text>
  <text x="315" y="450" >main.go</text>
  <text x="315" y="474" >migrate</text>
  <text x="351" y="498" >001</text>
  <line x1="384" y1="504" x2="396" y2="504" class="solid"></line>
  <text x="399" y="498" >init</text>
  <line x1="444" y1="504" x2="456" y2="504" class="solid"></line>
  <text x="459" y="498" >table.down.sql</text>
  <text x="351" y="522" >001</text>
  <line x1="384" y1="528" x2="396" y2="528" class="solid"></line>
  <text x="399" y="522" >init</text>
  <line x1="444" y1="528" x2="456" y2="528" class="solid"></line>
  <text x="459" y="522" >table.up.sql</text>
  <text x="351" y="546" >002</text>
  <line x1="384" y1="552" x2="396" y2="552" class="solid"></line>
  <text x="399" y="546" >init</text>
  <line x1="444" y1="552" x2="456" y2="552" class="solid"></line>
  <text x="459" y="546" >data.down.sql</text>
  <text x="351" y="570" >002</text>
  <line x1="384" y1="576" x2="396" y2="576" class="solid"></line>
  <text x="399" y="570" >init</text>
  <line x1="444" y1="576" x2="456" y2="576" class="solid"></line>
  <text x="459" y="570" >data.up.sql</text>
  <text x="243" y="594" >config</text>
  <text x="279" y="618" >postgres.yaml</text>
  <text x="243" y="642" >githooks</text>
  <text x="279" y="666" >pre</text>
  <line x1="312" y1="660" x2="324" y2="660" class="solid"></line>
  <text x="327" y="666" >commit</text>
  <text x="243" y="690" >go.mod</text>
  <text x="243" y="714" >go.sum</text>
  <text x="243" y="738" >Makefile</text>
  <text x="243" y="762" >README.md</text>
  <text x="243" y="786" >scripts</text>
  <text x="279" y="810" >course</text>
  <line x1="348" y1="816" x2="360" y2="816" class="solid"></line>
  <text x="363" y="810" >gen</text>
  <text x="279" y="834" >racingpost</text>
  <text x="279" y="858" >region</text>
  <line x1="348" y1="864" x2="360" y2="864" class="solid"></line>
  <text x="363" y="858" >gen</text>
  <g>
    <line x1="198" y1="18" x2="198" y2="780" class="solid"></line>
    <line x1="198" y1="36" x2="228" y2="36" class="solid"></line>
    <line x1="198" y1="84" x2="228" y2="84" class="solid"></line>
    <line x1="198" y1="588" x2="228" y2="588" class="solid"></line>
    <line x1="198" y1="636" x2="228" y2="636" class="solid"></line>
    <line x1="198" y1="684" x2="228" y2="684" class="solid"></line>
    <line x1="198" y1="708" x2="228" y2="708" class="solid"></line>
    <line x1="198" y1="732" x2="228" y2="732" class="solid"></line>
    <line x1="198" y1="756" x2="228" y2="756" class="solid"></line>
    <line x1="198" y1="780" x2="228" y2="780" class="solid"></line>
  </g>
  <g>
    <line x1="234" y1="48" x2="234" y2="60" class="solid"></line>
    <line x1="234" y1="60" x2="264" y2="60" class="solid"></line>
  </g>
  <g>
    <line x1="234" y1="96" x2="234" y2="300" class="solid"></line>
    <line x1="234" y1="108" x2="264" y2="108" class="solid"></line>
    <line x1="234" y1="204" x2="264" y2="204" class="solid"></line>
    <line x1="234" y1="300" x2="264" y2="300" class="solid"></line>
  </g>
  <g>
    <line x1="270" y1="120" x2="270" y2="180" class="solid"></line>
    <line x1="270" y1="132" x2="300" y2="132" class="solid"></line>
    <line x1="270" y1="156" x2="300" y2="156" class="solid"></line>
    <line x1="270" y1="180" x2="300" y2="180" class="solid"></line>
  </g>
  <g>
    <line x1="270" y1="216" x2="270" y2="276" class="solid"></line>
    <line x1="270" y1="228" x2="300" y2="228" class="solid"></line>
    <line x1="270" y1="252" x2="300" y2="252" class="solid"></line>
    <line x1="270" y1="276" x2="300" y2="276" class="solid"></line>
  </g>
  <g>
    <line x1="270" y1="312" x2="270" y2="468" class="solid"></line>
    <line x1="270" y1="324" x2="300" y2="324" class="solid"></line>
    <line x1="270" y1="444" x2="300" y2="444" class="solid"></line>
    <line x1="270" y1="468" x2="300" y2="468" class="solid"></line>
  </g>
  <g>
    <line x1="306" y1="336" x2="306" y2="420" class="solid"></line>
    <line x1="306" y1="348" x2="336" y2="348" class="solid"></line>
    <line x1="306" y1="372" x2="336" y2="372" class="solid"></line>
    <line x1="306" y1="396" x2="336" y2="396" class="solid"></line>
    <line x1="306" y1="420" x2="336" y2="420" class="solid"></line>
  </g>
  <g>
    <line x1="306" y1="480" x2="306" y2="564" class="solid"></line>
    <line x1="306" y1="492" x2="336" y2="492" class="solid"></line>
    <line x1="306" y1="516" x2="336" y2="516" class="solid"></line>
    <line x1="306" y1="540" x2="336" y2="540" class="solid"></line>
    <line x1="306" y1="564" x2="336" y2="564" class="solid"></line>
  </g>
  <g>
    <line x1="234" y1="600" x2="234" y2="612" class="solid"></line>
    <line x1="234" y1="612" x2="264" y2="612" class="solid"></line>
  </g>
  <g>
    <line x1="234" y1="648" x2="234" y2="660" class="solid"></line>
    <line x1="234" y1="660" x2="264" y2="660" class="solid"></line>
  </g>
  <g>
    <line x1="234" y1="792" x2="234" y2="852" class="solid"></line>
    <line x1="234" y1="804" x2="264" y2="804" class="solid"></line>
    <line x1="234" y1="828" x2="264" y2="828" class="solid"></line>
    <line x1="234" y1="852" x2="264" y2="852" class="solid"></line>
  </g>
</svg>
