<svg xmlns="http://www.w3.org/2000/svg" width="200" height="480" class="svgbob">
  <style>.svgbob line, .svgbob path, .svgbob circle, .svgbob rect, .svgbob polygon {
  stroke: black;
  stroke-width: 2;
  stroke-opacity: 1;
  fill-opacity: 1;
  stroke-linecap: round;
  stroke-linejoin: miter;
}

.svgbob text {
  white-space: pre;
  fill: black;
  font-family: Iosevka Fixed, monospace;
  font-size: 14px;
}

.svgbob rect.backdrop {
  stroke: none;
  fill: white;
}

.svgbob .broken {
  stroke-dasharray: 8;
}

.svgbob .filled {
  fill: black;
}

.svgbob .bg_filled {
  fill: white;
  stroke-width: 1;
}

.svgbob .nofill {
  fill: white;
}

.svgbob .end_marked_arrow {
  marker-end: url(#arrow);
}

.svgbob .start_marked_arrow {
  marker-start: url(#arrow);
}

.svgbob .end_marked_diamond {
  marker-end: url(#diamond);
}

.svgbob .start_marked_diamond {
  marker-start: url(#diamond);
}

.svgbob .end_marked_circle {
  marker-end: url(#circle);
}

.svgbob .start_marked_circle {
  marker-start: url(#circle);
}

.svgbob .end_marked_open_circle {
  marker-end: url(#open_circle);
}

.svgbob .start_marked_open_circle {
  marker-start: url(#open_circle);
}

.svgbob .end_marked_big_open_circle {
  marker-end: url(#big_open_circle);
}

.svgbob .start_marked_big_open_circle {
  marker-start: url(#big_open_circle);
}

</style>
  <defs>
    <marker id="arrow" viewBox="-2 -2 8 8" refX="4" refY="2" markerWidth="7" markerHeight="7" orient="auto-start-reverse">
      <polygon points="0,0 0,4 4,2 0,0"></polygon>
    </marker>
    <marker id="diamond" viewBox="-2 -2 8 8" refX="4" refY="2" markerWidth="7" markerHeight="7" orient="auto-start-reverse">
      <polygon points="0,2 2,0 4,2 2,4 0,2"></polygon>
    </marker>
    <marker id="circle" viewBox="0 0 8 8" refX="4" refY="4" markerWidth="7" markerHeight="7" orient="auto-start-reverse">
      <circle cx="4" cy="4" r="2" class="filled"></circle>
    </marker>
    <marker id="open_circle" viewBox="0 0 8 8" refX="4" refY="4" markerWidth="7" markerHeight="7" orient="auto-start-reverse">
      <circle cx="4" cy="4" r="2" class="bg_filled"></circle>
    </marker>
    <marker id="big_open_circle" viewBox="0 0 8 8" refX="4" refY="4" markerWidth="7" markerHeight="7" orient="auto-start-reverse">
      <circle cx="4" cy="4" r="3" class="bg_filled"></circle>
    </marker>
  </defs>
  <rect class="backdrop" x="0" y="0" width="200" height="480"></rect>
  <text x="34" y="28" >assets</text>
  <text x="58" y="44" >structure.svg</text>
  <text x="34" y="60" >cmd</text>
  <text x="58" y="76" >analysis</text>
  <text x="82" y="92" >app.go</text>
  <text x="82" y="108" >internal</text>
  <text x="106" y="124" >analysis.go</text>
  <text x="106" y="140" >types.go</text>
  <text x="82" y="156" >test.go</text>
  <text x="58" y="172" >postgres</text>
  <text x="82" y="188" >app.go</text>
  <text x="82" y="204" >internal</text>
  <text x="106" y="220" >migrate.go</text>
  <text x="106" y="236" >read.go</text>
  <text x="106" y="252" >types.go</text>
  <text x="106" y="268" >write.go</text>
  <text x="82" y="284" >test.go</text>
  <text x="58" y="300" >scrape</text>
  <text x="82" y="316" >app.go</text>
  <text x="82" y="332" >scrape.sh</text>
  <text x="34" y="348" >config</text>
  <text x="58" y="364" >postgres.yml</text>
  <text x="34" y="380" >go.mod</text>
  <text x="34" y="396" >go.sum</text>
  <text x="34" y="412" >Makefile</text>
  <text x="34" y="428" >README.md</text>
  <text x="34" y="444" >scripts</text>
  <text x="58" y="460" >scrape.sh</text>
  <g>
    <line x1="4" y1="12" x2="4" y2="440" class="solid"></line>
    <line x1="4" y1="24" x2="24" y2="24" class="solid"></line>
    <line x1="4" y1="56" x2="24" y2="56" class="solid"></line>
    <line x1="4" y1="344" x2="24" y2="344" class="solid"></line>
    <line x1="4" y1="376" x2="24" y2="376" class="solid"></line>
    <line x1="4" y1="392" x2="24" y2="392" class="solid"></line>
    <line x1="4" y1="408" x2="24" y2="408" class="solid"></line>
    <line x1="4" y1="424" x2="24" y2="424" class="solid"></line>
    <line x1="4" y1="440" x2="24" y2="440" class="solid"></line>
  </g>
  <g>
    <line x1="28" y1="32" x2="28" y2="40" class="solid"></line>
    <line x1="28" y1="40" x2="48" y2="40" class="solid"></line>
  </g>
  <g>
    <line x1="28" y1="64" x2="28" y2="296" class="solid"></line>
    <line x1="28" y1="72" x2="48" y2="72" class="solid"></line>
    <line x1="28" y1="168" x2="48" y2="168" class="solid"></line>
    <line x1="28" y1="296" x2="48" y2="296" class="solid"></line>
  </g>
  <g>
    <line x1="52" y1="80" x2="52" y2="152" class="solid"></line>
    <line x1="52" y1="88" x2="72" y2="88" class="solid"></line>
    <line x1="52" y1="104" x2="72" y2="104" class="solid"></line>
    <line x1="52" y1="152" x2="72" y2="152" class="solid"></line>
  </g>
  <g>
    <line x1="76" y1="112" x2="76" y2="136" class="solid"></line>
    <line x1="76" y1="120" x2="96" y2="120" class="solid"></line>
    <line x1="76" y1="136" x2="96" y2="136" class="solid"></line>
  </g>
  <g>
    <line x1="52" y1="176" x2="52" y2="280" class="solid"></line>
    <line x1="52" y1="184" x2="72" y2="184" class="solid"></line>
    <line x1="52" y1="200" x2="72" y2="200" class="solid"></line>
    <line x1="52" y1="280" x2="72" y2="280" class="solid"></line>
  </g>
  <g>
    <line x1="76" y1="208" x2="76" y2="264" class="solid"></line>
    <line x1="76" y1="216" x2="96" y2="216" class="solid"></line>
    <line x1="76" y1="232" x2="96" y2="232" class="solid"></line>
    <line x1="76" y1="248" x2="96" y2="248" class="solid"></line>
    <line x1="76" y1="264" x2="96" y2="264" class="solid"></line>
  </g>
  <g>
    <line x1="52" y1="304" x2="52" y2="328" class="solid"></line>
    <line x1="52" y1="312" x2="72" y2="312" class="solid"></line>
    <line x1="52" y1="328" x2="72" y2="328" class="solid"></line>
  </g>
  <g>
    <line x1="28" y1="352" x2="28" y2="360" class="solid"></line>
    <line x1="28" y1="360" x2="48" y2="360" class="solid"></line>
  </g>
  <g>
    <line x1="28" y1="448" x2="28" y2="456" class="solid"></line>
    <line x1="28" y1="456" x2="48" y2="456" class="solid"></line>
  </g>
</svg>
