<svg xmlns="http://www.w3.org/2000/svg" width="400" height="960" class="svgbob">
  <style>.svgbob line, .svgbob path, .svgbob circle, .svgbob rect, .svgbob polygon {
  stroke: black;
  stroke-width: 2;
  stroke-opacity: 1;
  fill-opacity: 1;
  stroke-linecap: round;
  stroke-linejoin: miter;
}

.svgbob text {
  white-space: pre;
  fill: black;
  font-family: Iosevka Fixed, monospace;
  font-size: 14px;
}

.svgbob rect.backdrop {
  stroke: none;
  fill: white;
}

.svgbob .broken {
  stroke-dasharray: 8;
}

.svgbob .filled {
  fill: black;
}

.svgbob .bg_filled {
  fill: white;
  stroke-width: 1;
}

.svgbob .nofill {
  fill: white;
}

.svgbob .end_marked_arrow {
  marker-end: url(#arrow);
}

.svgbob .start_marked_arrow {
  marker-start: url(#arrow);
}

.svgbob .end_marked_diamond {
  marker-end: url(#diamond);
}

.svgbob .start_marked_diamond {
  marker-start: url(#diamond);
}

.svgbob .end_marked_circle {
  marker-end: url(#circle);
}

.svgbob .start_marked_circle {
  marker-start: url(#circle);
}

.svgbob .end_marked_open_circle {
  marker-end: url(#open_circle);
}

.svgbob .start_marked_open_circle {
  marker-start: url(#open_circle);
}

.svgbob .end_marked_big_open_circle {
  marker-end: url(#big_open_circle);
}

.svgbob .start_marked_big_open_circle {
  marker-start: url(#big_open_circle);
}

</style>
  <defs>
    <marker id="arrow" viewBox="-2 -2 8 8" refX="4" refY="2" markerWidth="7" markerHeight="7" orient="auto-start-reverse">
      <polygon points="0,0 0,4 4,2 0,0"></polygon>
    </marker>
    <marker id="diamond" viewBox="-2 -2 8 8" refX="4" refY="2" markerWidth="7" markerHeight="7" orient="auto-start-reverse">
      <polygon points="0,2 2,0 4,2 2,4 0,2"></polygon>
    </marker>
    <marker id="circle" viewBox="0 0 8 8" refX="4" refY="4" markerWidth="7" markerHeight="7" orient="auto-start-reverse">
      <circle cx="4" cy="4" r="2" class="filled"></circle>
    </marker>
    <marker id="open_circle" viewBox="0 0 8 8" refX="4" refY="4" markerWidth="7" markerHeight="7" orient="auto-start-reverse">
      <circle cx="4" cy="4" r="2" class="bg_filled"></circle>
    </marker>
    <marker id="big_open_circle" viewBox="0 0 8 8" refX="4" refY="4" markerWidth="7" markerHeight="7" orient="auto-start-reverse">
      <circle cx="4" cy="4" r="3" class="bg_filled"></circle>
    </marker>
  </defs>
  <rect class="backdrop" x="0" y="0" width="400" height="960"></rect>
  <text x="68" y="56" >assets</text>
  <text x="116" y="88" >structure.svg</text>
  <text x="68" y="120" >cmd</text>
  <text x="116" y="152" >analysis</text>
  <text x="164" y="184" >app.go</text>
  <text x="164" y="216" >internal</text>
  <text x="212" y="248" >analysis.go</text>
  <text x="212" y="280" >types.go</text>
  <text x="164" y="312" >test.go</text>
  <text x="116" y="344" >postgres</text>
  <text x="164" y="376" >app.go</text>
  <text x="164" y="408" >internal</text>
  <text x="212" y="440" >migrate.go</text>
  <text x="212" y="472" >read.go</text>
  <text x="212" y="504" >types.go</text>
  <text x="212" y="536" >write.go</text>
  <text x="164" y="568" >test.go</text>
  <text x="116" y="600" >scrape</text>
  <text x="164" y="632" >app.go</text>
  <text x="164" y="664" >scrape.sh</text>
  <text x="68" y="696" >config</text>
  <text x="116" y="728" >postgres.yml</text>
  <text x="68" y="760" >go.mod</text>
  <text x="68" y="792" >go.sum</text>
  <text x="68" y="824" >Makefile</text>
  <text x="68" y="856" >README.md</text>
  <text x="68" y="888" >scripts</text>
  <text x="116" y="920" >scrape.sh</text>
  <g>
    <line x1="8" y1="24" x2="8" y2="880" class="solid"></line>
    <line x1="8" y1="48" x2="48" y2="48" class="solid"></line>
    <line x1="8" y1="112" x2="48" y2="112" class="solid"></line>
    <line x1="8" y1="688" x2="48" y2="688" class="solid"></line>
    <line x1="8" y1="752" x2="48" y2="752" class="solid"></line>
    <line x1="8" y1="784" x2="48" y2="784" class="solid"></line>
    <line x1="8" y1="816" x2="48" y2="816" class="solid"></line>
    <line x1="8" y1="848" x2="48" y2="848" class="solid"></line>
    <line x1="8" y1="880" x2="48" y2="880" class="solid"></line>
  </g>
  <g>
    <line x1="56" y1="64" x2="56" y2="80" class="solid"></line>
    <line x1="56" y1="80" x2="96" y2="80" class="solid"></line>
  </g>
  <g>
    <line x1="56" y1="128" x2="56" y2="592" class="solid"></line>
    <line x1="56" y1="144" x2="96" y2="144" class="solid"></line>
    <line x1="56" y1="336" x2="96" y2="336" class="solid"></line>
    <line x1="56" y1="592" x2="96" y2="592" class="solid"></line>
  </g>
  <g>
    <line x1="104" y1="160" x2="104" y2="304" class="solid"></line>
    <line x1="104" y1="176" x2="144" y2="176" class="solid"></line>
    <line x1="104" y1="208" x2="144" y2="208" class="solid"></line>
    <line x1="104" y1="304" x2="144" y2="304" class="solid"></line>
  </g>
  <g>
    <line x1="152" y1="224" x2="152" y2="272" class="solid"></line>
    <line x1="152" y1="240" x2="192" y2="240" class="solid"></line>
    <line x1="152" y1="272" x2="192" y2="272" class="solid"></line>
  </g>
  <g>
    <line x1="104" y1="352" x2="104" y2="560" class="solid"></line>
    <line x1="104" y1="368" x2="144" y2="368" class="solid"></line>
    <line x1="104" y1="400" x2="144" y2="400" class="solid"></line>
    <line x1="104" y1="560" x2="144" y2="560" class="solid"></line>
  </g>
  <g>
    <line x1="152" y1="416" x2="152" y2="528" class="solid"></line>
    <line x1="152" y1="432" x2="192" y2="432" class="solid"></line>
    <line x1="152" y1="464" x2="192" y2="464" class="solid"></line>
    <line x1="152" y1="496" x2="192" y2="496" class="solid"></line>
    <line x1="152" y1="528" x2="192" y2="528" class="solid"></line>
  </g>
  <g>
    <line x1="104" y1="608" x2="104" y2="656" class="solid"></line>
    <line x1="104" y1="624" x2="144" y2="624" class="solid"></line>
    <line x1="104" y1="656" x2="144" y2="656" class="solid"></line>
  </g>
  <g>
    <line x1="56" y1="704" x2="56" y2="720" class="solid"></line>
    <line x1="56" y1="720" x2="96" y2="720" class="solid"></line>
  </g>
  <g>
    <line x1="56" y1="896" x2="56" y2="912" class="solid"></line>
    <line x1="56" y1="912" x2="96" y2="912" class="solid"></line>
  </g>
</svg>
