<svg xmlns="http://www.w3.org/2000/svg" width="500" height="1200" class="svgbob">
  <style>.svgbob line, .svgbob path, .svgbob circle, .svgbob rect, .svgbob polygon {
  stroke: black;
  stroke-width: 2;
  stroke-opacity: 1;
  fill-opacity: 1;
  stroke-linecap: round;
  stroke-linejoin: miter;
}

.svgbob text {
  white-space: pre;
  fill: black;
  font-family: courier new;
  font-size: 21px;
}

.svgbob rect.backdrop {
  stroke: none;
  fill: transparent;
}

.svgbob .broken {
  stroke-dasharray: 8;
}

.svgbob .filled {
  fill: black;
}

.svgbob .bg_filled {
  fill: transparent;
  stroke-width: 1;
}

.svgbob .nofill {
  fill: transparent;
}

.svgbob .end_marked_arrow {
  marker-end: url(#arrow);
}

.svgbob .start_marked_arrow {
  marker-start: url(#arrow);
}

.svgbob .end_marked_diamond {
  marker-end: url(#diamond);
}

.svgbob .start_marked_diamond {
  marker-start: url(#diamond);
}

.svgbob .end_marked_circle {
  marker-end: url(#circle);
}

.svgbob .start_marked_circle {
  marker-start: url(#circle);
}

.svgbob .end_marked_open_circle {
  marker-end: url(#open_circle);
}

.svgbob .start_marked_open_circle {
  marker-start: url(#open_circle);
}

.svgbob .end_marked_big_open_circle {
  marker-end: url(#big_open_circle);
}

.svgbob .start_marked_big_open_circle {
  marker-start: url(#big_open_circle);
}

</style>
  <defs>
    <marker id="arrow" viewBox="-2 -2 8 8" refX="4" refY="2" markerWidth="7" markerHeight="7" orient="auto-start-reverse">
      <polygon points="0,0 0,4 4,2 0,0"></polygon>
    </marker>
    <marker id="diamond" viewBox="-2 -2 8 8" refX="4" refY="2" markerWidth="7" markerHeight="7" orient="auto-start-reverse">
      <polygon points="0,2 2,0 4,2 2,4 0,2"></polygon>
    </marker>
    <marker id="circle" viewBox="0 0 8 8" refX="4" refY="4" markerWidth="7" markerHeight="7" orient="auto-start-reverse">
      <circle cx="4" cy="4" r="2" class="filled"></circle>
    </marker>
    <marker id="open_circle" viewBox="0 0 8 8" refX="4" refY="4" markerWidth="7" markerHeight="7" orient="auto-start-reverse">
      <circle cx="4" cy="4" r="2" class="bg_filled"></circle>
    </marker>
    <marker id="big_open_circle" viewBox="0 0 8 8" refX="4" refY="4" markerWidth="7" markerHeight="7" orient="auto-start-reverse">
      <circle cx="4" cy="4" r="3" class="bg_filled"></circle>
    </marker>
  </defs>
  <rect class="backdrop" x="0" y="0" width="500" height="1200"></rect>
  <text x="85" y="70" >assets</text>
  <text x="145" y="110" >structure.svg</text>
  <text x="85" y="150" >cmd</text>
  <text x="145" y="190" >analysis</text>
  <text x="205" y="230" >app.go</text>
  <text x="205" y="270" >internal</text>
  <text x="265" y="310" >analysis.go</text>
  <text x="265" y="350" >types.go</text>
  <text x="205" y="390" >test.go</text>
  <text x="145" y="430" >postgres</text>
  <text x="205" y="470" >app.go</text>
  <text x="205" y="510" >internal</text>
  <text x="265" y="550" >migrate.go</text>
  <text x="265" y="590" >read.go</text>
  <text x="265" y="630" >types.go</text>
  <text x="265" y="670" >write.go</text>
  <text x="205" y="710" >test.go</text>
  <text x="145" y="750" >scrape</text>
  <text x="205" y="790" >app.go</text>
  <text x="205" y="830" >scrape.sh</text>
  <text x="85" y="870" >config</text>
  <text x="145" y="910" >postgres.yml</text>
  <text x="85" y="950" >go.mod</text>
  <text x="85" y="990" >go.sum</text>
  <text x="85" y="1030" >Makefile</text>
  <text x="85" y="1070" >README.md</text>
  <text x="85" y="1110" >scripts</text>
  <text x="145" y="1150" >scrape.sh</text>
  <g>
    <line x1="10" y1="30" x2="10" y2="1100" class="solid"></line>
    <line x1="10" y1="60" x2="60" y2="60" class="solid"></line>
    <line x1="10" y1="140" x2="60" y2="140" class="solid"></line>
    <line x1="10" y1="860" x2="60" y2="860" class="solid"></line>
    <line x1="10" y1="940" x2="60" y2="940" class="solid"></line>
    <line x1="10" y1="980" x2="60" y2="980" class="solid"></line>
    <line x1="10" y1="1020" x2="60" y2="1020" class="solid"></line>
    <line x1="10" y1="1060" x2="60" y2="1060" class="solid"></line>
    <line x1="10" y1="1100" x2="60" y2="1100" class="solid"></line>
  </g>
  <g>
    <line x1="70" y1="80" x2="70" y2="100" class="solid"></line>
    <line x1="70" y1="100" x2="120" y2="100" class="solid"></line>
  </g>
  <g>
    <line x1="70" y1="160" x2="70" y2="740" class="solid"></line>
    <line x1="70" y1="180" x2="120" y2="180" class="solid"></line>
    <line x1="70" y1="420" x2="120" y2="420" class="solid"></line>
    <line x1="70" y1="740" x2="120" y2="740" class="solid"></line>
  </g>
  <g>
    <line x1="130" y1="200" x2="130" y2="380" class="solid"></line>
    <line x1="130" y1="220" x2="180" y2="220" class="solid"></line>
    <line x1="130" y1="260" x2="180" y2="260" class="solid"></line>
    <line x1="130" y1="380" x2="180" y2="380" class="solid"></line>
  </g>
  <g>
    <line x1="190" y1="280" x2="190" y2="340" class="solid"></line>
    <line x1="190" y1="300" x2="240" y2="300" class="solid"></line>
    <line x1="190" y1="340" x2="240" y2="340" class="solid"></line>
  </g>
  <g>
    <line x1="130" y1="440" x2="130" y2="700" class="solid"></line>
    <line x1="130" y1="460" x2="180" y2="460" class="solid"></line>
    <line x1="130" y1="500" x2="180" y2="500" class="solid"></line>
    <line x1="130" y1="700" x2="180" y2="700" class="solid"></line>
  </g>
  <g>
    <line x1="190" y1="520" x2="190" y2="660" class="solid"></line>
    <line x1="190" y1="540" x2="240" y2="540" class="solid"></line>
    <line x1="190" y1="580" x2="240" y2="580" class="solid"></line>
    <line x1="190" y1="620" x2="240" y2="620" class="solid"></line>
    <line x1="190" y1="660" x2="240" y2="660" class="solid"></line>
  </g>
  <g>
    <line x1="130" y1="760" x2="130" y2="820" class="solid"></line>
    <line x1="130" y1="780" x2="180" y2="780" class="solid"></line>
    <line x1="130" y1="820" x2="180" y2="820" class="solid"></line>
  </g>
  <g>
    <line x1="70" y1="880" x2="70" y2="900" class="solid"></line>
    <line x1="70" y1="900" x2="120" y2="900" class="solid"></line>
  </g>
  <g>
    <line x1="70" y1="1120" x2="70" y2="1140" class="solid"></line>
    <line x1="70" y1="1140" x2="120" y2="1140" class="solid"></line>
  </g>
</svg>
