<svg xmlns="http://www.w3.org/2000/svg" width="300" height="720" class="svgbob">
  <style>.svgbob line, .svgbob path, .svgbob circle, .svgbob rect, .svgbob polygon {
  stroke: black;
  stroke-width: 2;
  stroke-opacity: 1;
  fill-opacity: 1;
  stroke-linecap: round;
  stroke-linejoin: miter;
}

.svgbob text {
  white-space: pre;
  fill: black;
  font-family: courier new;
  font-size: 21px;
}

.svgbob rect.backdrop {
  stroke: none;
  fill: transparent;
}

.svgbob .broken {
  stroke-dasharray: 8;
}

.svgbob .filled {
  fill: black;
}

.svgbob .bg_filled {
  fill: transparent;
  stroke-width: 1;
}

.svgbob .nofill {
  fill: transparent;
}

.svgbob .end_marked_arrow {
  marker-end: url(#arrow);
}

.svgbob .start_marked_arrow {
  marker-start: url(#arrow);
}

.svgbob .end_marked_diamond {
  marker-end: url(#diamond);
}

.svgbob .start_marked_diamond {
  marker-start: url(#diamond);
}

.svgbob .end_marked_circle {
  marker-end: url(#circle);
}

.svgbob .start_marked_circle {
  marker-start: url(#circle);
}

.svgbob .end_marked_open_circle {
  marker-end: url(#open_circle);
}

.svgbob .start_marked_open_circle {
  marker-start: url(#open_circle);
}

.svgbob .end_marked_big_open_circle {
  marker-end: url(#big_open_circle);
}

.svgbob .start_marked_big_open_circle {
  marker-start: url(#big_open_circle);
}

</style>
  <defs>
    <marker id="arrow" viewBox="-2 -2 8 8" refX="4" refY="2" markerWidth="7" markerHeight="7" orient="auto-start-reverse">
      <polygon points="0,0 0,4 4,2 0,0"></polygon>
    </marker>
    <marker id="diamond" viewBox="-2 -2 8 8" refX="4" refY="2" markerWidth="7" markerHeight="7" orient="auto-start-reverse">
      <polygon points="0,2 2,0 4,2 2,4 0,2"></polygon>
    </marker>
    <marker id="circle" viewBox="0 0 8 8" refX="4" refY="4" markerWidth="7" markerHeight="7" orient="auto-start-reverse">
      <circle cx="4" cy="4" r="2" class="filled"></circle>
    </marker>
    <marker id="open_circle" viewBox="0 0 8 8" refX="4" refY="4" markerWidth="7" markerHeight="7" orient="auto-start-reverse">
      <circle cx="4" cy="4" r="2" class="bg_filled"></circle>
    </marker>
    <marker id="big_open_circle" viewBox="0 0 8 8" refX="4" refY="4" markerWidth="7" markerHeight="7" orient="auto-start-reverse">
      <circle cx="4" cy="4" r="3" class="bg_filled"></circle>
    </marker>
  </defs>
  <rect class="backdrop" x="0" y="0" width="300" height="720"></rect>
  <text x="51" y="42" >assets</text>
  <text x="87" y="66" >structure.svg</text>
  <text x="51" y="90" >cmd</text>
  <text x="87" y="114" >analysis</text>
  <text x="123" y="138" >app.go</text>
  <text x="123" y="162" >internal</text>
  <text x="159" y="186" >analysis.go</text>
  <text x="159" y="210" >types.go</text>
  <text x="123" y="234" >test.go</text>
  <text x="87" y="258" >postgres</text>
  <text x="123" y="282" >app.go</text>
  <text x="123" y="306" >internal</text>
  <text x="159" y="330" >migrate.go</text>
  <text x="159" y="354" >read.go</text>
  <text x="159" y="378" >types.go</text>
  <text x="159" y="402" >write.go</text>
  <text x="123" y="426" >test.go</text>
  <text x="87" y="450" >scrape</text>
  <text x="123" y="474" >app.go</text>
  <text x="123" y="498" >scrape.sh</text>
  <text x="51" y="522" >config</text>
  <text x="87" y="546" >postgres.yml</text>
  <text x="51" y="570" >go.mod</text>
  <text x="51" y="594" >go.sum</text>
  <text x="51" y="618" >Makefile</text>
  <text x="51" y="642" >README.md</text>
  <text x="51" y="666" >scripts</text>
  <text x="87" y="690" >scrape.sh</text>
  <g>
    <line x1="6" y1="18" x2="6" y2="660" class="solid"></line>
    <line x1="6" y1="36" x2="36" y2="36" class="solid"></line>
    <line x1="6" y1="84" x2="36" y2="84" class="solid"></line>
    <line x1="6" y1="516" x2="36" y2="516" class="solid"></line>
    <line x1="6" y1="564" x2="36" y2="564" class="solid"></line>
    <line x1="6" y1="588" x2="36" y2="588" class="solid"></line>
    <line x1="6" y1="612" x2="36" y2="612" class="solid"></line>
    <line x1="6" y1="636" x2="36" y2="636" class="solid"></line>
    <line x1="6" y1="660" x2="36" y2="660" class="solid"></line>
  </g>
  <g>
    <line x1="42" y1="48" x2="42" y2="60" class="solid"></line>
    <line x1="42" y1="60" x2="72" y2="60" class="solid"></line>
  </g>
  <g>
    <line x1="42" y1="96" x2="42" y2="444" class="solid"></line>
    <line x1="42" y1="108" x2="72" y2="108" class="solid"></line>
    <line x1="42" y1="252" x2="72" y2="252" class="solid"></line>
    <line x1="42" y1="444" x2="72" y2="444" class="solid"></line>
  </g>
  <g>
    <line x1="78" y1="120" x2="78" y2="228" class="solid"></line>
    <line x1="78" y1="132" x2="108" y2="132" class="solid"></line>
    <line x1="78" y1="156" x2="108" y2="156" class="solid"></line>
    <line x1="78" y1="228" x2="108" y2="228" class="solid"></line>
  </g>
  <g>
    <line x1="114" y1="168" x2="114" y2="204" class="solid"></line>
    <line x1="114" y1="180" x2="144" y2="180" class="solid"></line>
    <line x1="114" y1="204" x2="144" y2="204" class="solid"></line>
  </g>
  <g>
    <line x1="78" y1="264" x2="78" y2="420" class="solid"></line>
    <line x1="78" y1="276" x2="108" y2="276" class="solid"></line>
    <line x1="78" y1="300" x2="108" y2="300" class="solid"></line>
    <line x1="78" y1="420" x2="108" y2="420" class="solid"></line>
  </g>
  <g>
    <line x1="114" y1="312" x2="114" y2="396" class="solid"></line>
    <line x1="114" y1="324" x2="144" y2="324" class="solid"></line>
    <line x1="114" y1="348" x2="144" y2="348" class="solid"></line>
    <line x1="114" y1="372" x2="144" y2="372" class="solid"></line>
    <line x1="114" y1="396" x2="144" y2="396" class="solid"></line>
  </g>
  <g>
    <line x1="78" y1="456" x2="78" y2="492" class="solid"></line>
    <line x1="78" y1="468" x2="108" y2="468" class="solid"></line>
    <line x1="78" y1="492" x2="108" y2="492" class="solid"></line>
  </g>
  <g>
    <line x1="42" y1="528" x2="42" y2="540" class="solid"></line>
    <line x1="42" y1="540" x2="72" y2="540" class="solid"></line>
  </g>
  <g>
    <line x1="42" y1="672" x2="42" y2="684" class="solid"></line>
    <line x1="42" y1="684" x2="72" y2="684" class="solid"></line>
  </g>
</svg>
